<?xml version="1.0" encoding="UTF-8"?>
<svg id="_图层_2" data-name="图层 2" xmlns="http://www.w3.org/2000/svg" viewBox="0 0 215.01 112.9">
  <defs>
    <style>
      .cls-1 {
        fill: none;
      }

      .cls-2 {
        fill: #fff;
      }

      .cls-2, .cls-3, .cls-4 {
        fill-rule: evenodd;
      }

      .cls-3 {
        stroke: #00045a;
        stroke-linecap: round;
        stroke-linejoin: round;
        stroke-width: .08px;
      }

      .cls-3, .cls-4 {
        fill: #00045a;
      }

      .cls-5, .cls-6 {
        fill: #00045a;
      }

      .cls-6 {
        stroke: #000;
        stroke-miterlimit: 10;
      }
    </style>
  </defs>
  <g id="_说明1" data-name="说明1">
    <g id="sim">
      <g>
        <g id="_图层8" data-name="图层8">
          <path class="cls-2" d="M1.19,74.42l-.23-5.11,5.63-3.02,29.53-48.25.03-13.11-.88-.18,6.96-3.98,8.02,4.3-1.44.8.03,9.25c-2.13,1.44,35.56,13.59,60,12.25l-.02-1.29-2.01-1.11,4.51-3.19,4.83,2.89-1.38.98.04,1.65c17.69-.26,35.2-2.29,52.53-8.36v-8.98s-2.01-1.59-2.01-1.59l10.11-3.98,7.71,5.19-1.98,1.03-.19,12.37,24.77,44.01,8.77,4.21-.05,3.25-213.3-.03Z"/>
        </g>
        <g>
          <g id="_图层6" data-name="图层6">
            <path class="cls-4" d="M106.5,29.05c-1.19,0-1.42.02-2.57,0-.01-.41-.03-.81-.04-1.21,1.19.03,2.41.04,3.64.05.59,0,.18,0,.77,0l-1.79,1.16ZM115.24,27.8c3.89-.1,7.56-.27,11-.51.02.44.04.84.06,1.24-2.72.18-5.58.32-8.59.41l-2.47-1.14ZM56.08,20.75c-3.86-1.47-5.71-2.39-5.71-2.39l-1.57-1.95s2.49,1.34,7.29,3.1c.02.4-.03.71,0,1.24ZM57.45,20.01c2.35.83,5.16,1.72,8.42,2.6,0,.41,0,.88.01,1.42-3.32-.89-6.18-2.07-8.43-2.89v-1.13ZM67.21,22.97c3.26.84,6.93,1.66,10.99,2.38.01.43.02.88.03,1.36-4.13-.7-7.8-1.5-11.01-2.32v-1.42ZM79.56,25.58c3.28.55,6.81,1.04,10.57,1.42v1.27c-3.79-.36-7.3-.82-10.54-1.34,0-.47-.02-.92-.03-1.35ZM91.47,27.13c3.5.33,7.19.56,11.08.68.01.4.03.8.04,1.21-3.93-.11-7.64-.33-11.13-.63v-1.26ZM127.58,27.2c5.28-.4,10.03-.93,14.25-1.54.01.51.02.94.03,1.34-4.2.58-8.94,1.08-14.23,1.46-.02-.4-.04-.81-.06-1.25ZM143.17,25.45c4.66-.71,8.63-1.5,11.93-2.26,0,.48,0,.97,0,1.46-3.28.73-7.24,1.48-11.9,2.15,0-.39-.02-.84-.03-1.35ZM156.44,22.87c7.24-1.76,10.81-3.31,10.81-3.31v1.57s-3.53,1.5-10.81,3.2c0-.49,0-.99,0-1.47ZM51.42,19.57l22.6,21.6,1.57-.31,1.92,1.66,7.01-2.67,1.68.76.08,3.95,4.96,1.55,5.82-3.09s-5.82-2.75-5.82-2.66c0,.09,0-2.39,0-2.39l-1.33-.63,15.58-7.43c-21.51-.22-37.39-3.34-54.07-10.35ZM181.05,11.12l-5.89-3.95-7.83,2.88v-.03c-.56-.75-1.44-1.28-2.5-1.67l10.67-4.6,8.64,5.97c-1.26.24-2.35.65-3.09,1.4ZM48.8,6.41l-6.44-3.7-6.16,3.2c-.57-.55-1.28-.9-2.09-1.11L42.35,0l9.06,5.13c-.53-.01-2.59.87-2.62,1.28ZM137.05,39.6l-1.99,1.07v1.37l-6.38,1.31,3.66,2.32,4.13-.81-.08-2.82.66-.63,8.93,2.75,21.65-21.69c-15.94,4.1-31.96,6.76-48.44,7.32l17.86,9.81ZM106.23,25.02c.1-.1,2.59.96,2.38,1.27l3.03-1.88,3.14,1.51c.39-.57.99-1,1.87-1.22l-5.23-3.27s-5.23,3.64-5.19,3.59ZM111.99,30.2c-6.06,2.79-15.1,6.35-19.49,7.66-.11.03-.11.03-.22-.02,0,0-.14-.17-.14-.17,0-.07-.01-.15.02-.21.08-.14.11-.12.26-.17,3.63-1.1,11.07-4.05,18.66-8.73.67-.41.81-.48.81-.48,0,0,.3.21.55.36,7.71,4.56,15.39,7.72,23.01,10.9.39.16.33.73-.22.53-.15-.06-.14-.09-6.74-2.73-4.81-1.93-10.94-4.36-16.51-6.91ZM109.25,26.63l.03,1.3,1.94-1.13v-1.42l-1.97,1.25ZM114.2,26.3v1.37l-1.86-.89-.05-1.4,1.91.92Z"/>
            <path class="cls-1" d="M167.33,10.06l.05,8.53"/>
            <path class="cls-4" d="M167.39,19.1c-.27,0-.27-.31-.29-.51l-.28-8.54c-.02-.88,1.01-.8,1.02,0,.02,2.85-.12,5.69-.18,8.54,0,.3-.03.5-.27.51Z"/>
          </g>
          <g id="_图层1" data-name="图层1">
            <path class="cls-4" d="M181.36,23.06c-.04.48-.64.38-.63,0l-.3-12.22c-.03-1.25,1.23-1.22,1.23,0,0,4.08.04,8.16-.3,12.22Z"/>
            <path class="cls-4" d="M49.19,15.4c-.03.66-.79.6-.78,0l-.15-9.45c.03-.86,1.06-.76,1.08,0,.1,3.15-.02,6.3-.15,9.44Z"/>
            <path class="cls-4" d="M36.68,17.89c0,1.07-.98.92-1.01,0-.14-4.18-.23-8.36-.35-12.54,0-.34.21-.56.25-.6.08-.08.17-.14.27-.18.05-.02.33-.14.66,0,.32.13.43.41.45.45.17.4-.22.42-.28,12.87Z"/>
            <path class="cls-4" d="M214.42,73.88c.75.03.83,1.06,0,1.09l-213.36-.28c-.41-.01-.4-.51,0-.52l213.36-.28Z"/>
            <path class="cls-1" d="M36.18,17.9L6.63,66.33"/>
            <path class="cls-4" d="M6.35,66.78c-.18-.11-.19-.12-.24-.33-.06-.26-.03-.27.12-.49.93-1.45,7.17-11.2,11.43-18.16,6.56-10.73,18.13-30.12,18.14-30.13.09-.07.16-.17.27-.2.11-.03.22.03.33.05.32.05.16.56.15.6,0,.01-15.22,24.41-20.38,33.03-5.11,8.54-9.08,15.44-9.1,15.44-.11.08-.2.2-.33.24-.21.05-.22.05-.4-.06Z"/>
            <path class="cls-1" d="M1.06,69.09l5.57-2.76"/>
            <path class="cls-4" d="M7.38,65.96c-.28.18-.16.63-.43.81l-5.52,3.07c-1.31.59-2.06-.81-.74-1.49,1.84-.95,3.8-1.67,5.7-2.5.47-.21.48.06.99.11Z"/>
            <path class="cls-4" d="M214.62,71.76c-.09.08-.2.13-.31.17-.11.04-.23.06-.35.05-.12,0-.24-.05-.36-.09-.1-.03-.19-.09-.28-.13l-7.86-4.03s-.18-.09-.28-.28c-2.15-4.02-7.48-14.14-12.64-23.39-3.96-7.09-11.76-20.84-11.76-20.84,0,0,.4-.65.58-.34.03.04,9.09,16.61,14.74,26.46,3.62,6.3,10.11,17.3,10.11,17.3.39.34.47.21,7.93,3.44.4.17.52.31.56.35.04.04.25.28.24.66,0,.03,0,.2-.09.36-.11.23-.17.26-.22.31Z"/>
            <path class="cls-3" d="M178.22,27.58l.72.38-.02,5.92-.65-.36-.04-5.94Z"/>
            <path class="cls-3" d="M38.53,23.8v7.2l1.01-.28v-7.42l-1.01.5Z"/>
            <path class="cls-4" d="M176.97,69.82l1.58.73.06,3.73h3.21s0-1.68,0-1.68l2.77-1.31,1.35.33s.03-.78.03-1.17c-.03-10.87-9.1-10.89-9.03-2.78"/>
          </g>
          <g id="_图层2" data-name="图层2">
            <path class="cls-3" d="M107.69,48.13l-4.17,1.52v-6.57c0-3.84,4.17-5.87,4.17-1.71v6.76ZM117.39,40.99c0-3.32,3.64-2.66,3.64,1.64v6.36l-3.64-1.34v-6.66ZM101.56,50.36l-2.42.88v-6.37c0-3.85,2.38-4.84,2.42-.99v6.48ZM122.98,43.51c0-3.51,3.03-2.44,3.03,1.36v5.95l-3.03-1.11v-6.2Z"/>
          </g>
          <g id="_图层4" data-name="图层4">
            <path class="cls-4" d="M131.43,50.24c-.23,0,5.96-1.27,5.96-1.27l.27,7.3-2.95,1.42-3.17-1.58"/>
            <path class="cls-4" d="M131.55,60.63l3.07,1.69,3.07-1.41.38,12.33-1.39.21-1.91-.79-.07-5.06.75-.71-3.79-2.37"/>
            <path class="cls-4" d="M86.14,50.2l7.51,2.04-.04,3.62-7.34,2.37-.13-8.03Z"/>
            <path class="cls-4" d="M86.59,63.94l7.36-2.15.13,2.92-3.67,2.34,1.23.82.08,4.64-5.07.81-.05-9.37Z"/>
          </g>
          <g id="_图层3" data-name="图层3">
            <path class="cls-4" d="M107.42,42.45c-.32.15-.7.02-.85-.29-.15-.32-.02-.7.29-.85l5.7-2.77c.18-.09.39-.08.57,0l4.96,2.55c.31.16.44.54.28.85-.16.31-.54.43-.86.27l-4.68-2.4-5.41,2.63Z"/>
            <path class="cls-4" d="M132.35,47.09c.53.38.2.95-.39.6-1.44-.84-4.32-2.54-4.32-2.54,0,0-2.32.7-2.48.74-.79.21-1.03-.86.07-1.17.77-.22,1.53-.47,2.3-.71.04-.01.25-.08.47.08.35.24,4.32,2.98,4.34,2.99Z"/>
            <path class="cls-4" d="M99.8,45c.75.43.52,1.67-.58,1.13-.63-.31-1.85-1.04-1.85-1.04l-4.34,2.14c-.48.32-1.08-.25-.38-.71.35-.23,4.21-2.53,4.62-2.62.18-.04.33.03.35.04.73.35,1.48.65,2.18,1.05Z"/>
            <path class="cls-4" d="M108.04,61.82c-.1.08-.23.12-.37.12l-.26-.05-.22-.16-.12-.2-.04-.22.03-.2.08-.16.12-.13.26-.15c.87-.42,5.83-2.54,5.83-2.54.16-.07.34-.07.51,0l5.25,2.32c.32.14.47.52.32.84-.14.32-.52.47-.84.32l-5-2.21c-1.02.43-4.78,2.05-5.52,2.41,0,0-.02,0-.03.01ZM108.08,60.82c-.08-.07-.21-.16-.42-.15.16,0,.31.06.42.15Z"/>
            <g>
              <path class="cls-4" d="M126.64,66.31c-.22.16-.46.11-.5.1-.42-.09-.71-.64-.32-1.07.1-.11.18-.15,1.52-.67.25-.1,3.07-1.21,3.18-1.24.21-.05.37.05.4.06,1.32.79,2.62,1.62,3.95,2.39.77.44.32,1.2-.45.78-1.27-.68-2.52-1.43-3.79-2.11-1.51.65-3.31,1.43-3.98,1.75Z"/>
              <path class="cls-2" d="M126.83,66.64h0c-.34.23-.7.15-.77.14-.67-.14-1.13-1-.52-1.68.06-.07.12-.13.31-.22.18-.09.54-.23,1.36-.55.26-.1,3.12-1.22,3.23-1.25.36-.08.63.08.67.11,1.32.79,2.61,1.62,3.95,2.39.64.37.68.91.49,1.23-.18.31-.67.54-1.3.21-1.22-.66-2.41-1.37-3.63-2.02-1.45.63-3.11,1.35-3.78,1.66ZM126.64,66.31c.68-.32,2.48-1.1,3.98-1.75,1.28.68,2.52,1.42,3.79,2.11.77.41,1.22-.34.45-.78-1.34-.77-2.64-1.6-3.95-2.39-.03-.02-.18-.11-.4-.06-.11.03-2.93,1.13-3.18,1.24-1.34.53-1.42.56-1.52.67-.39.43-.1.98.32,1.07.04,0,.29.06.5-.1Z"/>
            </g>
            <path class="cls-4" d="M101.4,65.34c.93.34.73,1.6-.46,1.18-1.69-.59-4.94-2.08-4.94-2.08l-4.81,2.33c-.51.31-.9-.3-.33-.64.39-.23,4.4-2.51,4.96-2.71.17-.06.31,0,.33,0,1.75.64,3.5,1.28,5.25,1.91Z"/>
            <path class="cls-2" d="M101.53,64.98c.84.3,1,1.15.66,1.62-.22.3-.67.51-1.37.27-1.48-.51-4.14-1.71-4.82-2.02l-4.64,2.24c-.49.28-.9.08-1.07-.22-.16-.29-.15-.75.37-1.07.39-.23,4.46-2.54,5.03-2.74.29-.1.54-.01.58,0,1.75.63,3.5,1.28,5.25,1.91ZM101.4,65.34c-1.75-.63-3.5-1.28-5.25-1.91-.03,0-.16-.06-.33,0-.56.2-4.57,2.47-4.96,2.71-.57.34-.18.94.33.64l4.81-2.33s3.25,1.5,4.94,2.08c1.2.42,1.39-.85.46-1.18Z"/>
          </g>
          <g id="_图层5" data-name="图层5">
            <path class="cls-4" d="M77.28,52.43l.98.52,3.59-1.16-.84-.64-3.73,1.28Z"/>
            <path class="cls-4" d="M69.57,54.82l.98.52,3.59-1.16-.84-.64-3.73,1.28Z"/>
            <path class="cls-4" d="M62.76,57.14l.98.52,3.59-1.16-.84-.64-3.73,1.28Z"/>
            <path class="cls-4" d="M55.96,59.46l.98.52,3.59-1.16-.84-.64-3.73,1.28Z"/>
            <path class="cls-4" d="M49.15,61.79l.98.52,3.59-1.16-.84-.64-3.73,1.28Z"/>
            <path class="cls-4" d="M23.26,69.93l.98.52,3.59-1.16-.84-.64-3.73,1.28Z"/>
            <path class="cls-4" d="M17.19,72.02l.98.52,3.59-1.16-.84-.64-3.73,1.28Z"/>
            <path class="cls-4" d="M11.12,74.11l.98.52,3.59-1.16-.84-.64-3.73,1.28Z"/>
            <path class="cls-4" d="M142.19,52.1l.74-.69,3.51,1.27-.74.62"/>
            <path class="cls-4" d="M149.25,54.72l.74-.69,3.51,1.27-.74.62"/>
            <path class="cls-4" d="M156.31,57.34l.74-.69,3.51,1.27-.74.62"/>
            <path class="cls-4" d="M163.37,59.96l.74-.69,3.51,1.27-.74.62"/>
            <path class="cls-4" d="M169.93,62.41l.74-.69,3.51,1.27-.74.62"/>
            <path class="cls-4" d="M191.02,70.86l.74-.69,3.51,1.27-.74.62"/>
            <path class="cls-4" d="M197.17,73.28l.74-.69,3.51,1.27-.74.62"/>
            <path class="cls-4" d="M46.12,74.52l-.02-.77,2.97-.79.03,1.56h-2.98ZM52.68,74.52l-.06-2.54,2.97-.79.05,3.33h-2.97ZM59.97,74.52l-.11-4.83,2.97-.79.09,5.62h-2.96ZM67.38,74.52l-.17-7.32,2.97-.79.13,8.11h-2.94ZM153.68,74.52l-.03-7.42,2.45.85.08,6.56h-2.49ZM160.73,74.52l-.02-5.16,2.45.85.05,4.31h-2.48ZM167.01,74.52v-2.91s2.44.85,2.44.85l.02,2.06h-2.46ZM172.97,74.52v-1.39s2.44.85,2.44.85v.54s-2.44,0-2.44,0ZM74.72,65.1l2.97-.79.16,9.88-2.93-.13-.21-8.96ZM146.87,64.57l2.45.85.11,8.82-2.51.08-.04-9.76Z"/>
            <path class="cls-3" d="M102.12,68.19l-1.08.19v-6.4l-1.9-3.38,2.98-.98v10.58ZM104.08,56.96l3.99-1.31v11.51l-3.99.69v-10.89ZM118.65,55.73l2.45.79v.72s.02,10.95.02,10.95l-2.48-.76v-11.69ZM123.07,57.14l2.94.94-1.67,3.35v7.67s-1.31-.45-1.31-.45l.04-11.42h0s0-.08,0-.08Z"/>
          </g>
          <g id="_图层7" data-name="图层7">
            <path class="cls-4" d="M33.36,69.93l2.58,2.06.08,2.32,6.44.14-.06-5.54.9-.34s.02-.62,0-1.51c-.07-8.45-10-6.88-9.94,2.25"/>
          </g>
        </g>
      </g>
      <g>
        <path class="cls-6" d="M54.09,90.99l6.8,7.02h.54c.34,0,.58.05.73.16.15.1.22.24.22.42,0,.16-.07.3-.22.41-.15.11-.39.16-.73.16h-4.6c-.34,0-.58-.05-.73-.16-.15-.11-.22-.25-.22-.41,0-.17.07-.31.22-.42s.39-.16.73-.16h2.28l-5.91-6.08-5.84,6.08h2.28c.34,0,.58.05.73.16s.22.24.22.42c0,.16-.07.3-.22.41-.15.11-.39.16-.73.16h-4.56c-.34,0-.58-.05-.73-.16-.15-.11-.22-.25-.22-.41,0-.13.05-.24.14-.34.09-.1.19-.16.31-.19.11-.03.46-.04,1.04-.04l6.71-7.02-6.4-6.64h-.53c-.34,0-.58-.05-.73-.16-.15-.1-.22-.24-.22-.42s.07-.31.22-.42c.15-.1.39-.16.73-.16h3.9c.35,0,.6.05.75.16s.22.24.22.42-.07.31-.22.42-.4.16-.75.16h-1.6l5.52,5.71,5.48-5.71h-1.6c-.35,0-.6-.05-.75-.16-.15-.1-.22-.24-.22-.42s.07-.31.22-.42c.15-.1.4-.16.75-.16h3.92c.34,0,.58.05.73.16.15.1.22.24.22.42s-.07.31-.22.42c-.15.1-.39.16-.73.16h-.54l-6.37,6.64Z"/>
        <path class="cls-6" d="M92.54,94.37h-1.63l-5.5-10.01h-.27v13.65h2.64c.34,0,.58.05.73.16.15.1.22.24.22.42,0,.16-.07.3-.22.41-.15.11-.39.16-.73.16h-5.28c-.34,0-.58-.05-.73-.16-.15-.11-.22-.25-.22-.41,0-.17.07-.31.22-.42.15-.1.39-.16.73-.16h1.21v-13.65h-.9c-.34,0-.58-.05-.73-.16s-.22-.24-.22-.42.07-.31.22-.42.39-.16.73-.16h3.51l5.42,9.87,5.33-9.87h3.51c.35,0,.6.05.75.16s.22.24.22.42-.07.31-.22.42-.4.16-.75.16h-.89v13.65h1.19c.35,0,.6.05.75.16s.22.24.22.42c0,.16-.07.3-.22.41-.15.11-.4.16-.75.16h-5.26c-.34,0-.59-.05-.74-.16-.15-.11-.23-.25-.23-.41,0-.17.07-.31.22-.42.15-.1.4-.16.75-.16h2.64v-13.65h-.31l-5.4,10.01Z"/>
        <path class="cls-6" d="M136.89,84.36v9.57c0,1.61-.67,2.96-2.01,4.05s-2.96,1.63-4.85,1.63c-1.27,0-2.4-.22-3.39-.67-.99-.45-1.83-1.12-2.52-2.02-.69-.9-1.04-1.9-1.04-2.99v-9.57h-1.21c-.34,0-.58-.05-.73-.16s-.22-.24-.22-.42.08-.32.24-.44c.14-.09.37-.14.71-.14h5.28c.34,0,.58.05.73.16s.22.24.22.42-.07.31-.22.42-.39.16-.73.16h-2.64v9.57c0,1.26.54,2.33,1.62,3.21,1.08.88,2.36,1.32,3.83,1.32.94,0,1.8-.17,2.58-.52.78-.34,1.46-.88,2.04-1.59.58-.72.88-1.53.88-2.42v-9.57h-2.64c-.34,0-.58-.05-.73-.16s-.22-.24-.22-.42.07-.31.22-.42.39-.16.73-.16h5.28c.34,0,.58.05.73.16s.22.24.22.42-.07.31-.22.42-.39.16-.73.16h-1.21Z"/>
        <path class="cls-6" d="M169.28,94.37h-1.64l-5.5-10.01h-.27v13.65h2.64c.34,0,.58.05.73.16s.22.24.22.42c0,.16-.07.3-.22.41-.15.11-.39.16-.73.16h-5.28c-.34,0-.58-.05-.73-.16-.15-.11-.22-.25-.22-.41,0-.17.07-.31.22-.42s.39-.16.73-.16h1.21v-13.65h-.9c-.34,0-.58-.05-.73-.16s-.22-.24-.22-.42.07-.31.22-.42.39-.16.73-.16h3.51l5.42,9.87,5.33-9.87h3.51c.35,0,.6.05.75.16s.22.24.22.42-.07.31-.22.42-.4.16-.75.16h-.89v13.65h1.19c.35,0,.6.05.75.16s.22.24.22.42c0,.16-.07.3-.22.41-.15.11-.4.16-.75.16h-5.26c-.34,0-.59-.05-.74-.16-.15-.11-.23-.25-.23-.41,0-.17.07-.31.22-.42s.4-.16.75-.16h2.64v-13.65h-.31l-5.4,10.01Z"/>
      </g>
      <g>
        <path class="cls-5" d="M71.17,107.85v-1.12h3.22v1.12h-3.22ZM73.89,112.9l-2.02-5.48h1.5l1.46,4.5-.44.98h-.5ZM74.08,112.9l-.3-.62,2.14-5.42h.55l.22,1.16-2.07,4.89h-.55ZM78.03,112.9l-2.28-4.81.48-1.24h.52l2.19,5.07-.41.98h-.51ZM78.23,112.9l-.29-.62,1.45-4.85h1.36l-1.97,5.48h-.55ZM78.38,107.85v-1.12h3.1v1.12h-3.1Z"/>
        <path class="cls-5" d="M100.25,107.85v-1.12h3.41v1.12h-3.41ZM100.25,112.78v-1.12h3.41v1.12h-3.41ZM101.24,112.12v-4.74h1.43v4.74h-1.43Z"/>
        <path class="cls-5" d="M122.73,107.85v-1.12h3.31v1.12h-3.31ZM122.73,112.78v-1.12h3.31v1.12h-3.31ZM123.71,112.16v-4.78h1.43v4.78h-1.43ZM124.31,111.75v-1.26l3.54-2.84h1.58l-5.12,4.1ZM127.85,111.94l-2.16-2.37,1.1-.67,2.86,3.04h-1.8ZM126.88,107.85v-1.12h3.04v1.12h-3.04ZM126.93,112.78v-1.12h3.05v1.12h-3.05Z"/>
        <path class="cls-5" d="M148.82,107.85v-1.12h3.41v1.12h-3.41ZM148.82,112.78v-1.12h3.41v1.12h-3.41ZM149.81,112.12v-4.74h1.43v4.74h-1.43Z"/>
      </g>
    </g>
  </g>
</svg>