<?xml version="1.0" encoding="UTF-8"?>
<svg id="_图层_2" data-name="图层 2" xmlns="http://www.w3.org/2000/svg" viewBox="0 0 177.16 155.49">
  <defs>
    <style>
      .cls-1 {
        fill: none;
      }

      .cls-2, .cls-3, .cls-4 {
        fill-rule: evenodd;
      }

      .cls-2, .cls-5 {
        fill: #fff;
      }

      .cls-3 {
        stroke: #00045a;
        stroke-linecap: round;
        stroke-linejoin: round;
        stroke-width: .06px;
      }

      .cls-3, .cls-6, .cls-4 {
        fill: #00045a;
      }
    </style>
  </defs>
  <g id="_说明1" data-name="说明1">
    <g id="full">
      <g id="_图层9" data-name="图层9">
        <rect class="cls-6" x="1.58" width="174.85" height="154.33"/>
      </g>
      <g id="_图层10" data-name="图层10">
        <path class="cls-2" d="M149.71,111.87c.08.02,1.91.95,2.71-.17.67-.95-.67-3.45,2.7-2.93.93.14.96.3,1.81-.12.97-.48.98.64,2,1.19.88.47.16,2.14,1.23,1.82.43-.13,1.01-.52,1.52.39.31.55.42.45.74.99.44.76,1.64-1.21,2.04.45.24,1.01.16,1.21,1.16,1.47.27.07.51.31.66-.81.29-2.08,1.44-1.01,1.99-1.39.17-.12.78-2,2.06-.86,1.24,1.1.56,1.83,1.24,2.14,1.03.47,1.15.66,1.06,1.8,1.1.22,1.39.34,1.47.63.04.14.12.41-.14,1.85.67.62.43.76.77,1.59,1.06.02,1.13-.18,1.77.68l-.02,29.96-6.84-3.33-19.93-35.35Z"/>
        <path class="cls-2" d="M25.31,113.68c-1.03-2.69-2.07-.28-2.42-.2-.36.08-.47-.43-.62-.55-.55-.44-.79.18-1.25-.33-1.05-1.16-1.19.96-1.21,1.06-.05.18-.2.8-2.06,1.14-1.75-.88-2.4-.84-3.44-.52-.86.27-.93.38-1.41-.4-1.9.66-1.81-2.18-2.55-2.24-3.88-.3-4.15,2.17-3.56,3.19.84,1.43-.77,1.95-.51,2.72,1.24,3.72-3.02,1.44-3.16,1.47-.99.2.27,1.22-.59,1.5-.89.3-.77.53-.89,1.03l-.02,26.9,3.35-1.8,20.35-32.98Z"/>
        <path class="cls-2" d="M47.17,107.02c1.59.54,2.97-.17,4.62-.07,1.08-1.38,1.34-.62,1.99-.41,1.18.39-1.06-3.08,2.22-2.9.07,0,1.56.83,1.36-.18-.23-1.15-3.12-.74-1.32-3.22.42-.58,2.69-.22,1.54-2.22-.29-.5.72-1.45,1.63-1,.84.42,2.11-.69,1.27-2.04-.16-.26-1.31-1.14.32-2.58.7-.62,1.4.11,2.68.82,3.92-3.56,3.21-6.8,4.81-5.4.28.24.16,1.26,1.45,1.09.2-.03.21-.42,1.95-.77.37-.07.43,2.9,1.27,2.27,1.06-.8,1.35-1.69,1.95-.5.42.84,2.15-.09,2.92.84,1.1,1.33,2.41.61,3.24-.07.93-.76.02-.95.69-1.5,1.07-.87.98-.39,1.34-.68,1.25.28,1.59.28,2.56.14.78-.11-.02,1.34.91,1.13,1.06-.23,1.09.35,1.37.77.85,1.2-.91,1.52.48,1.67,4.18.46-.52,8.01,4.68,5.41.92-.46,2.23,1.93,2.72-.05.03-.13-.22-.57.14-1.09.2-.28,2.06-.86,2.49,2.18.28,1.95,1.68-.45,2.31.18.59.59.55,1.34,1.09.68.62-.76-.07-1.61.91-1.41,1.2.25,2.96,1.84,2.99,2.18,0,.1,0,.09.1,1.27.25.04.51-.08.77-.04.52.08-.01,3,1.54,2.63,1.65-.39,2.57-1.05,2.4.63-.09.94-.07,1.03.77,1.45.43.22,2.48.07,2.77-1.68,1.06-6.34,3.63-4.09,3.86-3.4.51,1.54,2.74-2.16,2.99-2.18,1.2-.09,1.36-.13,1.91.95.24.49,2.01-1.91,2.18-.09.05.59.2.76,2.56.63.22.88.17,1.4,1.78,1.09.66.6.73.43,1.55.87,1.51.81.76,1.25.54,2.94.08.03,2.29,1.36,2.48,1.48.01.14.12,1.46.51,1.66-32.84,8.26-62.75,7.88-87.31-1.47Z"/>
      </g>
      <g>
        <g id="_图层8" data-name="图层8">
          <path class="cls-2" d="M1.42,154.23l-.19-4.18,4.61-2.47,23.92-39.37-.08-10.48-.94-.42,6.36-3.71,6.83,3.86-1.56.69.02,8.46c2.54,4.22,33.04,11.02,49.04,10.19l.02-2.12-1.64-.91,3.69-2.61,3.95,2.36-1.13.8.09,2.53c13.98-.13,28.28-3.02,43.02-7.02l-.1-8.34-1.65-1.3,8.27-3.26,6.3,4.25-1.62.84-.15,10.12,20.26,36,7.17,3.44-.04,2.66-174.47-.03Z"/>
          <path class="cls-2" d="M.19,154.28L0,150.1c-.02-.47.23-.92.65-1.14l4.31-2.31,23.57-38.78-.07-9.34-.21-.1c-.42-.19-.7-.6-.73-1.06-.02-.46.21-.9.61-1.13l6.36-3.71c.38-.22.85-.22,1.23,0l6.83,3.86c.4.23.65.67.62,1.13-.02.47-.31.88-.73,1.07l-.83.37.02,7.25c.29.3.78.6,1.4.94,1.5.82,3.72,1.67,6.42,2.51,10.36,3.24,27.62,6.28,38.77,5.96v-.21s-1-.55-1-.55c-.37-.2-.61-.59-.63-1.01-.02-.42.17-.83.52-1.07l3.69-2.61c.4-.28.92-.3,1.34-.05l3.95,2.36c.36.21.58.59.6,1.01.02.42-.18.81-.52,1.05l-.59.42.02.67c13.21-.27,26.7-2.98,40.59-6.71l-.08-6.8-1.18-.93c-.35-.27-.52-.71-.46-1.15.06-.44.36-.8.77-.97l8.27-3.26c.38-.15.8-.1,1.14.12l6.3,4.25c.36.24.57.66.54,1.09-.02.43-.28.82-.66,1.02l-.97.5-.14,9.05,19.91,35.37,6.82,3.28c.43.21.71.65.7,1.13l-.04,2.66c-.01.67-.56,1.21-1.23,1.21l-174.47-.03c-.66,0-1.2-.52-1.23-1.18ZM1.42,154.23l174.47.03.04-2.66-7.17-3.44-20.26-36,.15-10.12,1.62-.84-6.3-4.25-8.27,3.26,1.65,1.3.1,8.34c-14.74,4.01-29.03,6.9-43.02,7.02l-.09-2.53,1.13-.8-3.95-2.36-3.69,2.61,1.64.91-.02,2.12c-16.01.83-46.51-5.97-49.04-10.19l-.02-8.46,1.56-.69-6.83-3.86-6.36,3.71.94.42.08,10.48-23.92,39.37-4.61,2.47.19,4.18Z"/>
        </g>
        <g>
          <g id="_图层6" data-name="图层6">
            <path class="cls-4" d="M87.56,117.11c-.97,0-1.16.02-2.1,0-.01-.33-.02-.66-.04-.99.98.02,1.97.03,2.97.04.49,0,.15,0,.63,0l-1.47.95ZM94.71,116.1c3.18-.08,6.18-.22,9-.42.01.36.03.69.05,1.02-2.23.14-4.57.26-7.02.34l-2.02-.93ZM46.32,110.33c-3.15-1.2-4.67-1.96-4.67-1.96l-1.28-1.59s2.04,1.1,5.96,2.54c.01.33-.02.58,0,1.01ZM47.44,109.72c1.92.68,4.22,1.41,6.89,2.13,0,.33,0,.72.01,1.16-2.72-.73-5.05-1.7-6.9-2.36v-.93ZM55.42,112.14c2.66.69,5.67,1.36,8.99,1.95,0,.35.02.72.02,1.11-3.38-.57-6.38-1.23-9-1.9v-1.16ZM65.52,114.28c2.68.45,5.57.85,8.65,1.16v1.04c-3.1-.29-5.97-.67-8.62-1.09,0-.39-.01-.75-.02-1.1ZM75.27,115.54c2.86.27,5.88.46,9.06.55.01.32.02.66.03.99-3.22-.09-6.25-.27-9.1-.51v-1.03ZM104.8,115.6c4.32-.32,8.21-.76,11.66-1.26.01.41.02.77.03,1.09-3.44.47-7.31.89-11.64,1.19-.01-.33-.03-.66-.05-1.02ZM117.55,114.17c3.81-.58,7.06-1.22,9.76-1.85,0,.39,0,.8,0,1.19-2.68.6-5.92,1.21-9.73,1.76,0-.32-.02-.68-.03-1.1ZM128.41,112.06c5.92-1.44,8.84-2.7,8.84-2.7v1.29s-2.88,1.23-8.84,2.62c0-.4,0-.81,0-1.2ZM42.5,109.36l18.48,17.66,1.29-.25,1.57,1.36,5.73-2.18,1.38.62.07,3.23,4.05,1.27,4.76-2.53s-4.76-2.25-4.76-2.18c0,.07,0-1.96,0-1.96l-1.09-.51,12.74-6.07c-17.59-.18-30.58-2.73-44.23-8.47ZM148.53,102.45l-4.82-3.23-6.4,2.36v-.03c-.46-.61-1.17-1.04-2.05-1.37l8.72-3.76,7.07,4.89c-1.03.2-1.92.53-2.53,1.14ZM40.36,98.59l-5.27-3.03-5.04,2.62c-.47-.45-1.05-.74-1.71-.91l6.75-3.92,7.41,4.19c-.43,0-2.12.71-2.14,1.05ZM112.55,125.74l-1.63.87v1.12l-5.22,1.07,2.99,1.9,3.38-.67-.07-2.3.54-.51,7.3,2.25,17.71-17.74c-13.03,3.36-26.14,5.53-39.62,5.99l14.61,8.03ZM87.33,113.82c.08-.08,2.12.79,1.94,1.04l2.48-1.54,2.57,1.23c.32-.47.81-.82,1.53-1l-4.28-2.67s-4.28,2.97-4.24,2.94ZM92.05,118.06c-4.96,2.28-12.35,5.2-15.94,6.26-.09.03-.09.03-.18-.02,0,0-.11-.14-.11-.14,0-.06-.01-.12.02-.18.06-.12.09-.1.21-.14,2.97-.9,9.06-3.31,15.26-7.14.54-.34.67-.4.67-.4,0,0,.24.17.45.29,6.31,3.73,12.59,6.32,18.82,8.91.32.13.27.6-.18.43-.12-.05-.12-.07-5.51-2.24-3.94-1.58-8.95-3.57-13.51-5.66ZM89.81,115.13l.03,1.07,1.59-.93v-1.16l-1.61,1.02ZM93.86,114.86v1.12l-1.52-.73-.04-1.14,1.56.75Z"/>
            <path class="cls-1" d="M137.31,101.58l.04,6.98"/>
            <path class="cls-4" d="M137.36,108.98c-.22,0-.22-.26-.23-.42l-.23-6.98c-.02-.72.83-.65.84,0,.02,2.33-.1,4.65-.15,6.98,0,.25-.02.41-.22.42Z"/>
          </g>
          <g id="_图层1" data-name="图层1">
            <path class="cls-4" d="M148.79,112.21c-.03.39-.53.31-.51,0l-.25-10c-.02-1.02,1.01-1,1.01,0,0,3.33.04,6.68-.25,10Z"/>
            <path class="cls-4" d="M40.68,105.95c-.02.54-.65.49-.64,0l-.12-7.73c.02-.7.86-.62.88,0,.08,2.57-.02,5.15-.12,7.73Z"/>
            <path class="cls-4" d="M30.45,107.98c0,.88-.8.75-.83,0-.11-3.42-.19-6.84-.28-10.26,0-.28.17-.46.2-.49.06-.06.14-.12.22-.15.04-.02.27-.11.54,0,.26.11.35.33.37.37.14.33-.18.34-.23,10.53Z"/>
            <path class="cls-4" d="M175.83,153.79c.61.02.68.87,0,.89l-174.51-.23c-.34-.01-.33-.42,0-.43l174.51-.23Z"/>
            <path class="cls-1" d="M30.04,108l-24.17,39.61"/>
            <path class="cls-4" d="M5.64,147.98c-.15-.09-.15-.1-.2-.27-.05-.21-.02-.22.1-.4.76-1.18,5.86-9.16,9.35-14.86,5.36-8.78,14.83-24.64,14.84-24.64.07-.05.13-.14.22-.16.09-.02.18.03.27.04.27.04.13.46.12.49,0,.01-12.45,19.97-16.67,27.02-4.18,6.99-7.43,12.63-7.44,12.63-.09.06-.16.17-.27.19-.17.04-.18.04-.33-.05Z"/>
            <path class="cls-1" d="M1.31,149.87l4.56-2.26"/>
            <path class="cls-4" d="M6.48,147.31c-.23.15-.13.51-.35.66l-4.51,2.51c-1.07.48-1.68-.66-.6-1.22,1.51-.78,3.11-1.37,4.66-2.05.39-.17.39.05.81.09Z"/>
            <path class="cls-4" d="M176,152.05c-.07.07-.16.1-.26.14-.09.03-.19.05-.29.04-.1,0-.2-.04-.29-.07-.08-.03-.15-.07-.23-.11l-6.43-3.29s-.15-.07-.23-.23c-1.76-3.29-6.12-11.57-10.34-19.13-3.24-5.8-9.62-17.05-9.62-17.05,0,0,.33-.53.48-.28.02.03,7.43,13.59,12.06,21.64,2.96,5.15,8.27,14.15,8.27,14.15.32.28.38.17,6.49,2.82.33.14.43.25.45.28.03.03.21.23.19.54,0,.02,0,.16-.07.29-.09.19-.14.21-.18.25Z"/>
            <path class="cls-3" d="M146.22,115.91l.59.31v4.84s-.55-.3-.55-.3l-.04-4.86Z"/>
            <path class="cls-3" d="M31.97,112.82v5.89l.83-.23v-6.07l-.83.41Z"/>
            <path class="cls-4" d="M145.2,150.46l1.29,1.31.05,2.34h2.62s0-1.04,0-1.04l2.27-1.41,1.1.27s.02-.64.02-.96c-.02-8.89-7.44-8.9-7.39-2.27"/>
          </g>
          <g id="_图层2" data-name="图层2">
            <path class="cls-3" d="M88.53,132.72l-3.41,1.24v-5.37c0-3.14,3.41-4.8,3.41-1.4v5.53ZM96.46,126.88c0-2.72,2.98-2.18,2.98,1.34v5.2l-2.98-1.09v-5.45ZM83.52,134.55l-1.98.72v-5.21c0-3.15,1.94-3.96,1.98-.81v5.3ZM101.04,128.94c0-2.87,2.48-1.99,2.48,1.11v4.87l-2.48-.91v-5.07Z"/>
          </g>
          <g id="_图层4" data-name="图层4">
            <path class="cls-4" d="M107.95,134.45c-.19,0,4.88-1.04,4.88-1.04l.22,5.97-2.41,1.16-2.59-1.29"/>
            <path class="cls-4" d="M108.05,142.95l2.51,1.38,2.51-1.15.31,10.08-1.13.17-1.56-.64-.05-4.14.61-.58-3.1-1.94"/>
            <path class="cls-4" d="M70.91,134.42l6.14,1.67-.03,2.96-6,1.94-.11-6.56Z"/>
            <path class="cls-4" d="M71.27,145.65l6.02-1.76.1,2.39-3,1.91,1,.67.06,3.79-4.15.66-.04-7.67Z"/>
          </g>
          <g id="_图层3" data-name="图层3">
            <path class="cls-4" d="M88.31,128.07c-.26.13-.57.02-.69-.24-.13-.26-.02-.57.24-.69l4.66-2.27c.15-.07.32-.07.46,0l4.06,2.08c.26.13.36.44.23.7-.13.25-.44.36-.7.22l-3.83-1.96-4.43,2.15Z"/>
            <path class="cls-4" d="M108.7,131.87c.43.31.16.78-.32.49-1.18-.69-3.53-2.08-3.53-2.08,0,0-1.9.57-2.02.61-.64.17-.84-.7.06-.96.63-.18,1.25-.39,1.88-.58.03,0,.21-.06.38.06.28.2,3.54,2.44,3.55,2.45Z"/>
            <path class="cls-4" d="M82.08,130.16c.62.35.42,1.37-.48.92-.52-.26-1.52-.85-1.52-.85l-3.55,1.75c-.4.26-.88-.2-.31-.58.29-.19,3.44-2.07,3.78-2.14.15-.03.27.03.29.04.6.28,1.21.53,1.78.86Z"/>
            <path class="cls-4" d="M88.82,143.92c-.09.06-.19.1-.3.1l-.21-.04-.18-.13-.1-.16-.04-.18.03-.17.06-.13.1-.11.21-.12c.71-.35,4.77-2.08,4.77-2.08.13-.06.28-.06.41,0l4.3,1.9c.26.12.38.42.27.68-.12.26-.42.38-.68.27l-4.09-1.8c-.83.35-3.91,1.67-4.52,1.97,0,0-.01,0-.02.01ZM88.85,143.1c-.07-.06-.17-.13-.34-.13.13,0,.25.05.34.13Z"/>
            <g>
              <path class="cls-4" d="M104.03,147.59c-.18.13-.38.09-.41.08-.34-.07-.58-.52-.26-.87.08-.09.15-.12,1.24-.55.21-.08,2.51-.99,2.6-1.01.17-.04.3.04.32.05,1.08.65,2.14,1.33,3.23,1.95.63.36.26.98-.37.64-1.04-.56-2.06-1.17-3.1-1.72-1.23.54-2.71,1.17-3.26,1.43Z"/>
              <path class="cls-2" d="M104.18,147.86h0c-.28.19-.57.12-.63.11-.55-.12-.92-.82-.42-1.38.05-.06.1-.1.25-.18.15-.07.44-.19,1.11-.45.21-.08,2.55-1,2.64-1.02.29-.07.51.06.55.09,1.08.65,2.14,1.33,3.23,1.95.52.3.55.74.4,1-.15.26-.55.45-1.06.17-1-.54-1.97-1.12-2.97-1.65-1.18.51-2.55,1.1-3.09,1.36ZM104.03,147.59c.55-.26,2.02-.9,3.26-1.43,1.05.56,2.06,1.16,3.1,1.72.63.34,1-.28.37-.64-1.09-.63-2.16-1.3-3.23-1.95-.02-.01-.15-.09-.32-.05-.09.02-2.39.93-2.6,1.01-1.09.43-1.16.46-1.24.55-.32.35-.08.8.26.87.04,0,.23.05.41-.08Z"/>
            </g>
            <path class="cls-4" d="M83.39,146.8c.76.27.6,1.31-.38.97-1.38-.48-4.04-1.71-4.04-1.71l-3.94,1.9c-.42.25-.73-.24-.27-.52.32-.19,3.6-2.05,4.06-2.21.14-.05.25,0,.27,0,1.43.52,2.86,1.05,4.29,1.57Z"/>
            <path class="cls-2" d="M83.49,146.51c.69.25.82.94.54,1.32-.18.24-.55.42-1.12.22-1.21-.42-3.39-1.4-3.94-1.66l-3.79,1.84c-.4.23-.74.06-.88-.18-.13-.23-.12-.61.3-.87.32-.19,3.65-2.07,4.11-2.24.24-.09.44-.01.48,0,1.43.52,2.86,1.05,4.29,1.56ZM83.39,146.8c-1.43-.52-2.86-1.05-4.29-1.57-.02,0-.13-.05-.27,0-.46.16-3.74,2.02-4.06,2.21-.46.28-.15.77.27.52l3.94-1.9s2.66,1.22,4.04,1.71c.98.34,1.13-.69.38-.97Z"/>
          </g>
          <g id="_图层5" data-name="图层5">
            <path class="cls-4" d="M63.6,136.06l3.05-1.05c.06-.02.12,0,.17.03l.69.53c.05.04.08.11.07.18-.01.07-.06.12-.12.14l-2.94.95s-.1.01-.14-.01l-.8-.43c-.06-.03-.1-.1-.1-.18,0-.07.05-.14.12-.16ZM57.29,138.02l3.05-1.05c.06-.02.12,0,.17.03l.69.53c.05.04.08.11.07.18-.01.07-.06.12-.12.14l-2.94.95s-.1.01-.14-.01l-.8-.43c-.06-.03-.1-.1-.1-.18,0-.07.05-.13.12-.16ZM51.73,139.92l3.05-1.05c.06-.02.12,0,.17.03l.69.52c.05.04.08.11.07.18-.01.07-.06.12-.12.14l-2.94.95s-.1.01-.14-.01l-.8-.43c-.06-.04-.1-.1-.1-.18,0-.07.05-.13.12-.16ZM46.16,141.82l3.05-1.05c.06-.02.12-.01.17.03l.69.52c.05.04.08.11.07.18-.01.07-.06.12-.12.14l-2.94.95s-.1.01-.14-.01l-.8-.43c-.06-.03-.1-.1-.1-.18,0-.07.05-.13.12-.16ZM40.59,143.72l3.05-1.05c.06-.02.12-.01.17.03l.69.53c.05.04.08.11.07.18-.01.07-.06.12-.12.14l-2.94.95s-.1.01-.14-.01l-.8-.43c-.06-.03-.1-.1-.1-.18,0-.07.05-.13.12-.16ZM19.42,150.38l3.05-1.05c.06-.02.12-.01.17.03l.69.52c.05.04.08.11.07.18-.01.07-.06.12-.12.14l-2.94.95s-.1.01-.14-.01l-.8-.43c-.06-.04-.1-.1-.1-.18,0-.07.05-.13.12-.16ZM14.45,152.09l3.05-1.05c.06-.02.12-.01.17.03l.69.52c.05.04.08.11.07.18-.01.07-.06.12-.12.14l-2.94.95s-.1.01-.14-.01l-.8-.43c-.06-.04-.1-.1-.1-.18,0-.07.05-.13.12-.16ZM9.48,153.8l3.05-1.05c.06-.02.12-.01.17.03l.69.52c.05.04.08.11.07.18-.01.07-.06.12-.12.14l-1.99.64s-1.12.06-1.16.04l-.73-.17c-.06-.03-.1-.1-.1-.18,0-.07.05-.13.12-.16ZM116.62,135.84l.6-.56s.12-.06.19-.04l2.87,1.04c.06.02.11.08.12.14.01.06-.01.13-.06.17l-.61.51s-.12.05-.18.03l-2.87-.98c-.06-.02-.11-.07-.12-.13-.01-.06,0-.13.05-.17ZM122.4,137.98l.6-.56s.12-.06.19-.04l2.87,1.04c.06.02.11.07.12.14.01.07-.01.13-.06.17l-.61.51s-.12.05-.18.03l-2.87-.98c-.06-.02-.11-.07-.12-.13-.01-.06,0-.13.05-.17ZM128.17,140.12l.6-.56s.12-.06.19-.04l2.87,1.04c.06.02.11.07.12.14.01.06-.01.13-.06.17l-.61.51s-.12.05-.18.03l-2.87-.98c-.06-.02-.11-.07-.12-.13-.01-.06,0-.13.05-.17ZM133.95,142.27l.6-.56s.12-.06.19-.04l2.87,1.04c.06.02.11.08.12.14.01.06-.01.13-.06.17l-.61.51s-.12.05-.18.03l-2.87-.98c-.06-.02-.11-.07-.12-.13-.01-.06,0-.13.05-.17ZM139.32,144.27l.6-.56s.12-.06.19-.04l2.87,1.04c.06.02.11.08.12.14.01.06-.01.13-.06.17l-.61.51s-.12.05-.18.03l-2.86-.98c-.06-.02-.11-.07-.12-.13-.01-.06,0-.13.05-.17ZM156.56,151.18l.6-.56s.12-.06.19-.04l2.87,1.04c.06.02.11.08.12.14.01.06-.01.13-.06.17l-.61.51s-.12.05-.18.03l-2.87-.98c-.06-.02-.11-.07-.12-.13-.01-.06,0-.13.05-.17ZM161.6,153.16l.6-.56s.12-.06.19-.04l2.87,1.04c.06.02.11.07.12.14.01.06-.01.13-.06.17l-.61.51s-.12.05-.18.03l-2.87-.98c-.06-.02-.11-.07-.12-.13-.01-.06,0-.13.05-.17Z"/>
            <path class="cls-4" d="M38.17,154.31v-.63s2.42-.64,2.42-.64l.02,1.28h-2.44ZM43.54,154.31l-.05-2.08,2.43-.65.04,2.73h-2.43ZM49.5,154.31l-.09-3.95,2.43-.65.08,4.6h-2.42ZM55.56,154.31l-.14-5.99,2.43-.64.11,6.63h-2.4ZM126.15,154.31l-.03-6.07,2,.7.06,5.37h-2.04ZM131.92,154.31l-.02-4.22,2,.7.04,3.53h-2.03ZM137.05,154.31v-2.38s1.99.7,1.99.7l.02,1.68h-2.01ZM141.93,154.31v-1.14s2,.7,2,.7v.44s-2,0-2,0ZM61.57,146.6l2.43-.65.13,8.08-2.4-.11-.17-7.33ZM120.58,146.17l2,.7.09,7.22-2.05.06-.04-7.98Z"/>
            <path class="cls-3" d="M83.98,149.13l-.89.15v-5.24l-1.55-2.77,2.44-.8v8.66ZM85.58,139.94l3.26-1.07v9.42l-3.26.56v-8.91ZM97.5,138.93l2.01.64v.59s.02,8.95.02,8.95l-2.02-.62v-9.56ZM101.11,140.09l2.41.77-1.36,2.74v6.27s-1.07-.37-1.07-.37l.03-9.34h0s0-.07,0-.07Z"/>
          </g>
          <g id="_图层7" data-name="图层7">
            <path class="cls-4" d="M27.73,150.55l2.11.98.06,2.6,5.27.12-.05-4.53.74-.28s.01-.51,0-1.23c-.06-6.91-8.18-5.63-8.13,1.84"/>
          </g>
        </g>
      </g>
      <g id="_图层11" data-name="图层11">
        <path class="cls-4" d="M52.42,108.82c.21-.25.44-.54.71-.87.1-.12,1.21-1.48,1.22-1.5.11-.2.18-.42.29-.62.05-.1.11-.2.18-.28.23-.26.49-.49.74-.73.06-.06.61-.61.79-.8.08-.08,1.02-1.32,1.05-1.37.11-.16.16-.36.28-.52.13-.17.3-.3.45-.45.36-.36.37-.35.7-.74l2.35-2.81q-2.45,3.05-2.5,3.12c-.13.19-.26.38-.38.57-.12.18-.21.37-.35.53-.13.15-.32.24-.45.37-.04.04-1.07,1.21-1.13,1.3-.15.21-.58.86-.63.93-.19.29-.37.59-.57.87-.06.09-.15.17-.23.23-.18.15-.38.26-.55.41-.05.04-1.07,1.3-1.94,2.36Z"/>
        <path class="cls-4" d="M60.11,101.85c-.21.29-2.55,3.55-2.61,3.65-.04.06-.07.14-.1.21-.03.06-.05.12-.08.18-.07.12-1.14,1.56-1.17,1.59-.05.06-.28.25-.3.27-.09.07-.19.14-.27.23-.12.13-.23.27-.34.41,0,0-.02,0-.01,0,.1-.15.21-.29.29-.44.06-.1.09-.22.14-.33.01-.03.13-.29.17-.36.02-.04,1.11-1.47,1.2-1.57.04-.05.1-.09.15-.13.06-.05.12-.1.17-.15.07-.08,2.54-3.25,2.76-3.53Z"/>
        <path class="cls-4" d="M56.57,109.62l.44-.64c.05-.09.06-.2.09-.3.07-.21.04-.22.17-.4.27-.36.84-1.05.86-1.08.06-.06.49-.45.64-.62.28-.3,2.58-3.47,2.58-3.47.01-.01.03,0,.02.02,0,0-2.35,3.14-2.56,3.49-.12.2-.36.72-.4.8-.07.12-.8,1.19-.84,1.22-.09.07-.18.13-.27.19-.09.06-.18.1-.26.18,0,0-.46.58-.49.61Z"/>
        <path class="cls-4" d="M62.44,104.65q-.85,1.16-1.01,1.38c-.31.44-.46.94-.79,1.38q-.53.7-1.09,1.38c-.28.34-.27.35-.6.66-.08.08-.17.15-.25.23-.14.15-.26.31-.4.46.16-.27.33-.54.49-.81.04-.07.07-.14.1-.2.03-.05.06-.1.09-.15.27-.42,1.23-1.78,1.48-2.04.18-.19.71-.66.85-.82.07-.09,1.05-1.35,1.14-1.46Z"/>
        <path class="cls-4" d="M64.71,104.29c-.11.16-1.33,1.9-1.4,2.01-.17.27-.54.99-.65,1.15-.08.12-1.1,1.53-1.19,1.66-.18.25-.19.24-.41.46-.09.1-.19.18-.28.28-.04.04-.57.71-.62.77-.14.18.04-.06.27-.42.09-.14.18-.27.26-.41.07-.11.12-.24.18-.35.14-.28.13-.28.31-.53.1-.13,1.1-1.55,1.19-1.66.12-.16.68-.74.88-.99.08-.1,1.34-1.81,1.45-1.97Z"/>
        <path class="cls-4" d="M66.07,104.83c-.11.17-1.32,2.06-1.35,2.15-.06.14.01.15-.04.29,0,.01-.19.29-.98,1.49-.16.25-.17.24-.38.45-.09.09-.18.18-.26.27-.03.04-.49.63-.53.68l.42-.75c.06-.11.1-.23.15-.34.12-.27.11-.28.27-.52.79-1.2.98-1.47.99-1.48.11-.1.15-.04.25-.15.06-.06,1.33-1.91,1.45-2.08Z"/>
        <path class="cls-4" d="M63.51,111.43l.62-1.03c.05-.1.08-.2.12-.3.09-.23.07-.24.21-.43.09-.11.72-.89,1-1.26.53-.71,3.35-4.92,3.35-4.93,0,0,.05-.01.03.02-.02.04-2.82,4.22-3.28,4.98-.27.45-.81,1.47-.85,1.52-.08.09-.16.17-.24.25-.08.08-.17.14-.24.23-.03.04-.66.89-.72.97Z"/>
        <path class="cls-4" d="M67.6,108c-.37.61-.54.87-.59,1-.12.28-.11.29-.19.42-.75,1.14-.82,1.25-.99,1.41-.22.21-.23.21-.29.3-.07.1-.13.18-.38.54.37-.55.4-.6.43-.67.15-.37.14-.38.25-.55q.17-.27.77-1.18c.11-.16.31-.33.38-.41t.62-.87Z"/>
        <path class="cls-4" d="M68.25,109.58c-.08.18-.16.36-.24.54-.09.2-.17.3-.36.58-.3.44-.36.48-.76.86.23-.53.2-.55.53-1.02.19-.28.26-.39.41-.54.14-.14.28-.28.42-.41Z"/>
        <path class="cls-4" d="M69.6,110.16c-.15.33-.14.33-.32.64-.24.43-.2.45-.28.55-.05.07-.33.3-.39.36-.03.03-.29.36-.31.39.2-.35.21-.35.29-.55,0-.03.1-.31.14-.39.05-.1.09-.07.4-.47.22-.28.23-.27.48-.54Z"/>
        <path class="cls-4" d="M114.75,106.07c-.13.33-.13.37-.45.73.16-.4.16-.4.45-.73Z"/>
        <path class="cls-4" d="M114.39,109.33c.07-.12.16-.27.26-.44.15-.25.47-.82.48-.84,0,0,.19-.51.23-.6.09-.2,1.13-1.86,1.2-1.96.12-.17.29-.38.31-.41.11-.16.45-.69.79-1.21-.2.34-.67,1.2-.73,1.32-.03.07-.16.35-.19.41-.24.44-1.04,1.83-1.15,1.98-.06.07-.29.34-.39.46-.09.1-.5.77-.81,1.29Z"/>
        <path class="cls-4" d="M119.37,103.48c-.21.37-.9,1.61-.97,1.73-.09.17-.4.88-.54,1.13-.17.31-1.25,2.15-1.55,2.58-.23.34-.24.33-.41.61l-.31.49c.27-.5.28-.49.53-1.01,0,0,.01-.08.92-1.71.67-1.22.71-1.25.98-1.63.43-.62.42-.63.8-1.28l.54-.93Z"/>
        <path class="cls-4" d="M119.7,104.97c-.04.07-.42.81-.44.85,0,.02-.23.63-.3.77-.04.09-.95,1.77-1.03,1.92-.29.54-.51.73-.71,1.09-.12.23-.68,1.28-.69,1.28,0,0-.02,0-.01,0,.05-.09.06-.09.61-1.14.23-.44.22-.5.4-.95.09-.22.11-.25.65-1.26l.56-1.05c.08-.13.46-.66.47-.67,0,0,.43-.76.47-.83Z"/>
        <path class="cls-4" d="M120.08,107.2c-.1.21-.19.42-.2.42-.02.08-.02.22-.1.38-.56,1.05-.59,1.07-.65,1.14-.04.05-.19.21-.2.23-.02.03-.26.42-.28.45.11-.23.23-.44.26-.55.07-.26.06-.27.25-.61.25-.46.45-.82.45-.83.03-.05.23-.24.23-.24.01-.02.04-.06.24-.4Z"/>
        <path class="cls-4" d="M121.78,106.78c-.1.19-.45.92-.45.92-.01.04-.02.09-.03.13-.05.2-.07.19-.16.37-.69,1.27-1.14,2.12-1.27,2.28-.1.13-.11.12-.21.25,0,0-.29.48-.41.66.05-.09.09-.18.28-.55.08-.17.08-.17.12-.31,0-.02.05-.16.09-.24.1-.21,1.29-2.4,1.29-2.41.11-.15.14-.13.23-.28q.04-.06.51-.81Z"/>
        <path class="cls-4" d="M122.61,108.12c-.15.26-.37.74-.37.75-.02.09-.06.29-.08.34-.02.04-.52,1.02-.62,1.16-.11.16-.16.12-.26.29-.08.13-.2.37-.33.58.03-.05.17-.3.32-.58.02-.05.03-.11.06-.29,0-.06.02-.09.29-.66.03-.07.31-.6.31-.61.04-.06.23-.25.23-.26.02-.03.22-.38.43-.71Z"/>
        <path class="cls-4" d="M167.25,132.16c-.09.15-1.1,1.73-1.16,1.85-.03.06-.19.44-.19.45-.03.05-.65.97-.66.99-.23.29-.28.26-.74.86-.74.97-.85,1.15-.79,1.06.73-1.19.74-1.18.87-1.42.05-.09.3-.61.35-.71.01-.02.64-.93.68-.98,0-.01.31-.29.35-.35.09-.1,1.19-1.61,1.3-1.76Z"/>
        <path class="cls-4" d="M169.39,132.31c-.37.53-.82,1.17-1.27,1.88-.04.06-.19.45-.21.48,0,.01-.97,1.49-1.05,1.62-.25.38-.25.38-.27.42-.05.07-.45.41-.52.48-.07.08-1.05,1.56-1.15,1.69,0,.01-.03.06-.06.04-.04-.03,0-.04.57-.98.04-.07.46-.76.5-.84.04-.09.18-.59.23-.67,0-.01.57-.87.66-1.02.38-.57.7-1,.71-1.01.09-.09.3-.27.32-.3.11-.1.09-.12,1.2-1.42q.09-.11.16-.19c.08-.1.08-.1.17-.2Z"/>
        <path class="cls-4" d="M165.49,141.02l1.24-1.93s.35-.64.44-.76c.85-1.26,2.12-2.92,2.22-3.03.07-.07.44-.35.47-.38.07-.06.15-.2,1.87-2.18-.14.17-1.15,1.44-1.7,2.2-.06.09-.06.09-.11.19-.03.07-.17.38-.2.43-.04.05-.73.93-1.93,2.51-.31.41-.3.42-.64.8-.26.29-.27.29-.79,1q-.26.35-.85,1.16Z"/>
        <path class="cls-4" d="M173.48,133.24c-1.22,1.79-1.22,1.79-1.29,1.91-.13.22-.08.25-.22.47-.13.21-2.73,4.02-3.01,4.34-.11.12-.71.71-.72.72-.08.09-1.48,1.94-1.61,2.1-.1.14.12-.16,1.21-1.79.09-.13.19-.27.27-.41.02-.04.38-.83.51-1.02.41-.6,2.89-3.9,3.08-4.13.16-.2.21-.16.38-.35.09-.1.09-.11,1.4-1.84Z"/>
        <path class="cls-4" d="M175.32,133.96c-.12.19-1.41,2.26-1.48,2.38-.07.13-.46,1.06-.66,1.36-.12.18-1.16,1.74-1.26,1.89-.16.24-1.02,1.53-2,2.93-.36.51-.34.52-.78.97-.12.12-.25.23-.35.36-.03.03-.74,1.04-.81,1.13l.73-1.18c.08-.15.13-.31.2-.47.25-.57.26-.57.6-1.1.91-1.44,1.77-2.74,1.93-2.97q1.25-1.88,1.37-2.04c.2-.24.82-.89.89-.98.09-.11,1.49-2.1,1.62-2.28Z"/>
        <path class="cls-4" d="M169.29,146.94c.09-.14,1.12-1.74,1.15-1.8.03-.05.02-.05.33-.65.26-.52.27-.52.6-1,.43-.63,1.41-2.07,2.39-3.45.25-.35.3-.4.96-1.15.06-.07,1.33-1.88,1.48-2.12.52-.77-1.34,2.1-1.38,2.16,0,.01-.25.49-.27.54-.32.63-.33.63-.72,1.22-.79,1.2-1.14,1.72-2.22,3.3-.29.42-.31.4-1.04,1.23-.03.04-1.16,1.58-1.26,1.72Z"/>
        <path class="cls-4" d="M176.33,140.73c-.69,1.08-.7,1.08-.72,1.12,0,0-.22.6-.29.73-.22.39-1.78,2.69-1.81,2.72-.07.09-.32.32-.35.34-.23.21-.25.19-.43.44-.21.29-1.18,1.66-1.28,1.8q1.04-1.59,1.2-1.85c.16-.26.15-.27.25-.56.01-.04.13-.35.19-.45.02-.04,1.59-2.34,1.87-2.68.09-.11.57-.53.58-.54.03-.04.03-.04.78-1.08Z"/>
        <path class="cls-4" d="M173.46,148.63c.49-.78.5-.78.54-.86.05-.09.24-.6.31-.75.1-.19.8-1.19,1.06-1.51.03-.04.3-.28.3-.29.03-.03.34-.44.37-.48.3-.39.3-.4.31-.4,0,0,0,.01-.25.43-.02.04-.29.49-.31.52,0,0-.13.35-.16.39-.2.35-.86,1.38-1,1.54-.11.12-.51.5-.58.57-.04.05-.55.76-.6.82Z"/>
        <path class="cls-4" d="M176.43,147.72c-.58,1.04-.64,1.17-.74,1.28-.1.11-.1.1-.33.32-.15.14-.32.33-.5.52.09-.17.19-.33.28-.49.06-.12.24-.51.35-.66.07-.08.07-.08.94-.98Z"/>
        <path class="cls-4" d="M1.89,131.05c.33-.58.33-.57.34-.61,0,0,.02-.34.04-.38.13-.21.66-1,.71-1.06.07-.09.42-.3.46-.34.02-.02.33-.43.36-.47,0,0,.01-.03.03-.02.01.01,0,.03,0,.03-.03.04-.32.47-.33.49-.04.1-.12.45-.17.54-.03.05-.15.19-.64.96-.02.03-.03.06-.06.09-.04.04-.32.19-.32.19-.02.01-.38.52-.41.57Z"/>
        <path class="cls-4" d="M7.35,126.55c-.1.14-1.09,1.58-1.19,1.74,0,.01-.3.64-.38.74-.06.09-.13.18-.19.26-1.78,2.42-1.76,2.43-1.98,2.67-.02.02-.48.46-.54.54-.1.12-1.18,1.66-1.28,1.8.8-1.16,1.21-1.76,1.25-1.83.07-.11.32-.69.43-.88.27-.44,1.98-2.76,2-2.79.08-.1.59-.57.6-.58.19-.24,1.19-1.54,1.29-1.67Z"/>
        <path class="cls-4" d="M8.16,128.09q-.95,1.38-1,1.45c-.23.39-.2.41-.42.8-.16.3-.18.29-.37.56-.63.88-1.18,1.64-1.96,2.66-.41.54-.43.52-.84.95-.16.17-.26.3-.46.57-.45.6-.98,1.32-1.34,1.8.13-.18,1.52-2.16,1.58-2.25.1-.16.42-.78.56-.99.33-.51,1.68-2.36,1.83-2.57l.29-.41c.24-.33.23-.34.67-.78.13-.13.26-.26.39-.39q.05-.06,1.07-1.39Z"/>
        <path class="cls-4" d="M2.14,139.59c1.58-2.3,1.59-2.29,1.89-2.76.09-.14.47-.9.59-1.09.19-.33,1.94-2.62,2.36-3.14.07-.09.62-.62.62-.63.03-.04.95-1.21,1.18-1.52.01-.01.02-.03.03-.05.01-.01.03,0,.02.02,0,.02-.02.03-.03.05-.22.32-1.06,1.55-1.09,1.59,0,0-.34.69-.4.78-.37.57-2.02,2.93-2.27,3.21-.14.16-.75.76-.86.89-.26.31-1.88,2.43-2.05,2.64Z"/>
        <path class="cls-4" d="M11.93,128.91c-.2.3-2.49,3.64-2.51,3.69-.09.19-.13.4-.23.58-.06.1-2.25,3.32-2.5,3.63-.13.16-.98,1.1-.98,1.1-.05.07-1.26,1.69-1.35,1.84-.46.71-1.99,3.18-2.16,3.46-.06.1-.07.11-.19.13,0,0-.21-.05-.21-.05-.04-.06-.1-.11-.11-.18-.01-.07,0-.15.05-.21.4-.54.84-1.05,1.25-1.57.1-.13.84-1.05,1.29-1.64.11-.14,1.23-1.82,1.28-1.89,0,0,.6-1.12.71-1.3.21-.33,2.5-3.48,2.58-3.57.14-.16.32-.27.47-.42.04-.04,2.42-3.32,2.63-3.61Z"/>
        <path class="cls-4" d="M12.52,131.09c-.19.29-.37.57-.56.86-.2.31-.41.6-.6.92-.08.14-.12.3-.18.44-.07.17-.13.34-.22.5-.15.26-2.61,3.99-2.93,4.4-.07.09-.14.17-.22.25-.11.12-.22.23-.33.34-.18.18-.36.36-.52.55-.08.1-1.92,2.69-2.18,3.1-.37.58-1.14,1.92-1.24,2.08-.35.62-.71,1.23-1.06,1.85-.09.15-.1.15-.26.18,0,0-.29-.06-.29-.06-.05-.08-.14-.15-.16-.25-.02-.1,0-.21.06-.29.17-.23.2-.2,2.21-2.74.55-.69.75-.99.81-1.07.5-.72,1.89-2.83,1.94-2.91.12-.22.22-.46.33-.69.07-.14.13-.29.2-.43.18-.36.19-.36.42-.69.83-1.21,2.68-3.79,2.79-3.92.11-.14.26-.26.39-.38.11-.11.25-.2.35-.33.11-.13.1-.14,1.25-1.72Z"/>
        <path class="cls-4" d="M12.7,134.19c-.05.1-.66,1.18-.67,1.2-.01.03,0,.03-.13.37-.01.04-.13.35-.19.44-.03.06-1.64,2.39-3.06,4.33-.25.34-.26.33-.55.64-.13.14-.27.27-.39.41-.05.06-1.37,1.92-1.46,2.06-.72,1.19-1.8,3.11-1.82,3.12-.07.05-.13.12-.21.13,0,0-.24-.06-.25-.06-.04-.07-.11-.13-.13-.21-.03-.19,0-.19.13-.34.19-.22,1.94-2.33,2.29-2.84.44-.64,1.29-1.92,1.31-1.96.09-.16.16-.34.24-.51q.25-.52.57-1.01c1.49-2.29,2.77-4.13,2.78-4.14.08-.1.39-.37.43-.4.07-.06.16-.12.22-.19.08-.08.07-.09.89-1.05Z"/>
      </g>
      <g>
        <path class="cls-5" d="M62.8,17.71l5.56,5.74h.45c.28,0,.48.04.6.13.12.09.18.2.18.34s-.06.25-.18.33c-.12.09-.32.13-.6.13h-3.76c-.28,0-.48-.04-.6-.13-.12-.09-.18-.2-.18-.33,0-.14.06-.25.18-.34.12-.08.32-.13.6-.13h1.87l-4.83-4.97-4.78,4.97h1.87c.28,0,.48.04.6.13.12.09.18.2.18.34s-.06.25-.18.33c-.12.09-.32.13-.6.13h-3.73c-.28,0-.48-.04-.6-.13-.12-.09-.18-.2-.18-.33,0-.1.04-.2.11-.28.07-.08.16-.13.25-.16.09-.02.38-.03.85-.03l5.49-5.74-5.24-5.43h-.43c-.28,0-.48-.04-.6-.13-.12-.09-.18-.2-.18-.34s.06-.25.18-.34c.12-.09.32-.13.6-.13h3.19c.29,0,.49.04.61.13s.18.2.18.34-.06.25-.18.34-.33.13-.61.13h-1.31l4.51,4.67,4.49-4.67h-1.31c-.29,0-.49-.04-.61-.13s-.18-.2-.18-.34.06-.25.18-.34.32-.13.61-.13h3.2c.28,0,.48.04.6.13.12.09.18.2.18.34s-.06.25-.18.34c-.12.09-.32.13-.6.13h-.45l-5.21,5.43Z"/>
        <path class="cls-5" d="M80.73,20.48h-1.34l-4.5-8.19h-.22v11.17h2.16c.28,0,.48.04.6.13.12.09.18.2.18.34s-.06.25-.18.33c-.12.09-.32.13-.6.13h-4.32c-.28,0-.48-.04-.6-.13-.12-.09-.18-.2-.18-.33,0-.14.06-.25.18-.34.12-.08.32-.13.6-.13h.99v-11.17h-.74c-.28,0-.48-.04-.6-.13s-.18-.2-.18-.34.06-.25.18-.34.32-.13.6-.13h2.87l4.43,8.07,4.36-8.07h2.87c.29,0,.49.04.61.13s.18.2.18.34-.06.25-.18.34-.33.13-.61.13h-.72v11.17h.98c.29,0,.49.04.61.13.12.09.18.2.18.34s-.06.25-.18.33c-.12.09-.33.13-.61.13h-4.3c-.28,0-.48-.04-.61-.13-.13-.09-.19-.2-.19-.33,0-.14.06-.25.18-.34.12-.08.32-.13.61-.13h2.16v-11.17h-.25l-4.42,8.19Z"/>
        <path class="cls-5" d="M103.48,12.29v7.82c0,1.31-.55,2.42-1.64,3.31s-2.42,1.34-3.97,1.34c-1.04,0-1.96-.18-2.77-.55-.81-.36-1.5-.92-2.06-1.65s-.85-1.55-.85-2.45v-7.82h-.99c-.28,0-.48-.04-.6-.13-.12-.09-.18-.2-.18-.34s.07-.26.2-.36c.11-.07.31-.11.58-.11h4.32c.28,0,.48.04.6.13.12.09.18.2.18.34s-.06.25-.18.34c-.12.09-.32.13-.6.13h-2.16v7.82c0,1.03.44,1.91,1.32,2.63.88.72,1.93,1.08,3.13,1.08.77,0,1.47-.14,2.11-.42.64-.28,1.19-.72,1.67-1.3.48-.59.72-1.25.72-1.98v-7.82h-2.16c-.28,0-.48-.04-.6-.13-.12-.09-.18-.2-.18-.34s.06-.25.18-.34c.12-.09.32-.13.6-.13h4.32c.28,0,.48.04.6.13.12.09.18.2.18.34s-.06.25-.18.34c-.12.09-.32.13-.6.13h-.99Z"/>
        <path class="cls-5" d="M116.45,20.48h-1.34l-4.5-8.19h-.22v11.17h2.16c.28,0,.48.04.6.13.12.09.18.2.18.34s-.06.25-.18.33c-.12.09-.32.13-.6.13h-4.32c-.28,0-.48-.04-.6-.13-.12-.09-.18-.2-.18-.33,0-.14.06-.25.18-.34.12-.08.32-.13.6-.13h.99v-11.17h-.74c-.28,0-.48-.04-.6-.13-.12-.09-.18-.2-.18-.34s.06-.25.18-.34c.12-.09.32-.13.6-.13h2.87l4.43,8.07,4.36-8.07h2.87c.29,0,.49.04.61.13.12.09.18.2.18.34s-.06.25-.18.34c-.12.09-.33.13-.61.13h-.72v11.17h.98c.29,0,.49.04.61.13.12.09.18.2.18.34s-.06.25-.18.33c-.12.09-.33.13-.61.13h-4.3c-.28,0-.48-.04-.61-.13-.12-.09-.19-.2-.19-.33,0-.14.06-.25.18-.34.12-.08.33-.13.61-.13h2.16v-11.17h-.25l-4.42,8.19Z"/>
      </g>
      <g>
        <path class="cls-5" d="M76.52,31.94v-.91h2.64v.91h-2.64ZM78.74,36.07l-1.65-4.48h1.22l1.2,3.68-.36.8h-.41ZM78.9,36.07l-.25-.51,1.75-4.44h.45l.18.95-1.69,4h-.45ZM82.13,36.07l-1.86-3.93.4-1.02h.42l1.79,4.15-.33.8h-.42ZM82.29,36.07l-.24-.51,1.19-3.97h1.12l-1.61,4.48h-.45ZM82.41,31.94v-.91h2.53v.91h-2.53Z"/>
        <path class="cls-5" d="M86.98,31.94v-.91h2.79v.91h-2.79ZM86.98,35.97v-.91h2.79v.91h-2.79ZM87.79,35.43v-3.87h1.17v3.87h-1.17Z"/>
        <path class="cls-5" d="M92.05,31.94v-.91h2.71v.91h-2.71ZM92.05,35.97v-.91h2.71v.91h-2.71ZM92.85,35.46v-3.91h1.17v3.91h-1.17ZM93.34,35.12v-1.03l2.89-2.33h1.29l-4.18,3.36ZM96.24,35.28l-1.76-1.94.9-.55,2.34,2.48h-1.48ZM95.44,31.94v-.91h2.48v.91h-2.48ZM95.48,35.97v-.91h2.5v.91h-2.5Z"/>
        <path class="cls-5" d="M100.07,31.94v-.91h2.79v.91h-2.79ZM100.07,35.97v-.91h2.79v.91h-2.79ZM100.87,35.43v-3.87h1.17v3.87h-1.17Z"/>
      </g>
    </g>
  </g>
</svg>