<?xml version="1.0" encoding="UTF-8"?>
<svg id="_图层_2" data-name="图层 2" xmlns="http://www.w3.org/2000/svg" viewBox="0 0 142.19 45.91">
  <defs>
    <style>
      .cls-1 {
        fill: #00045a;
      }
    </style>
  </defs>
  <g id="_说明1" data-name="说明1">
    <g id="ver">
      <g>
        <path class="cls-1" d="M16.69,13.04l11.39,11.76h.91c.57,0,.98.09,1.23.26.25.18.37.41.37.7s-.12.5-.37.69c-.25.18-.66.27-1.23.27h-7.7c-.57,0-.98-.09-1.23-.27-.25-.18-.37-.41-.37-.69,0-.29.12-.52.37-.7.25-.17.66-.26,1.23-.26h3.82l-9.9-10.18-9.79,10.18h3.82c.57,0,.98.09,1.23.26.25.18.37.41.37.7s-.12.5-.37.69-.66.27-1.23.27H1.6c-.57,0-.98-.09-1.23-.27-.25-.18-.37-.41-.37-.69,0-.21.08-.4.23-.57.15-.17.32-.27.51-.32.19-.05.77-.07,1.74-.07l11.24-11.76L3,1.92h-.88c-.57,0-.98-.09-1.23-.26-.25-.17-.37-.41-.37-.7s.12-.52.37-.7c.25-.17.66-.26,1.23-.26h6.53c.59,0,1.01.09,1.26.26.25.18.37.41.37.7s-.12.52-.37.7c-.25.18-.67.26-1.26.26h-2.68l9.25,9.56L24.4,1.92h-2.68c-.59,0-1.01-.09-1.26-.26-.25-.17-.37-.41-.37-.7s.12-.52.37-.7c.25-.17.67-.26,1.26-.26h6.56c.57,0,.98.09,1.23.26.25.18.37.41.37.7s-.12.52-.37.7c-.25.18-.66.26-1.23.26h-.91l-10.67,11.12Z"/>
        <path class="cls-1" d="M53.43,18.7h-2.74L41.47,1.92h-.46v22.87h4.42c.57,0,.98.09,1.23.26.25.18.37.41.37.7s-.12.5-.37.69c-.25.18-.66.27-1.23.27h-8.85c-.57,0-.98-.09-1.23-.27s-.37-.41-.37-.69c0-.29.12-.52.37-.7.25-.17.66-.26,1.23-.26h2.03V1.92h-1.51c-.57,0-.98-.09-1.23-.26-.25-.17-.37-.41-.37-.7s.12-.52.37-.7c.25-.17.66-.26,1.23-.26h5.88l9.07,16.53L60.99,0h5.88c.59,0,1.01.09,1.26.26.25.18.37.41.37.7s-.12.52-.37.7c-.25.18-.67.26-1.26.26h-1.48v22.87h2c.59,0,1.01.09,1.26.26.25.18.37.41.37.7s-.12.5-.37.69-.67.27-1.26.27h-8.82c-.57,0-.98-.09-1.24-.27s-.39-.41-.39-.69c0-.29.12-.52.37-.7.25-.17.67-.26,1.26-.26h4.42V1.92h-.51l-9.05,16.78Z"/>
        <path class="cls-1" d="M100.03,1.92v16.03c0,2.69-1.12,4.95-3.37,6.78-2.25,1.83-4.96,2.74-8.13,2.74-2.13,0-4.02-.37-5.68-1.12s-3.06-1.88-4.22-3.39c-1.16-1.51-1.74-3.18-1.74-5.01V1.92h-2.03c-.57,0-.98-.09-1.23-.26-.25-.17-.37-.41-.37-.7s.13-.53.4-.73c.23-.15.63-.23,1.2-.23h8.85c.57,0,.98.09,1.23.26.25.18.37.41.37.7s-.12.52-.37.7c-.25.18-.66.26-1.23.26h-4.42v16.03c0,2.12.9,3.91,2.71,5.39,1.81,1.48,3.95,2.21,6.42,2.21,1.58,0,3.02-.29,4.32-.87,1.3-.58,2.44-1.47,3.42-2.67s1.47-2.56,1.47-4.06V1.92h-4.42c-.57,0-.98-.09-1.23-.26-.25-.17-.37-.41-.37-.7s.12-.52.37-.7c.25-.17.66-.26,1.23-.26h8.85c.57,0,.98.09,1.23.26.25.18.37.41.37.7s-.12.52-.37.7c-.25.18-.66.26-1.23.26h-2.03Z"/>
        <path class="cls-1" d="M126.61,18.7h-2.74L114.65,1.92h-.46v22.87h4.42c.57,0,.98.09,1.23.26.25.18.37.41.37.7s-.12.5-.37.69c-.25.18-.66.27-1.23.27h-8.85c-.57,0-.98-.09-1.23-.27s-.37-.41-.37-.69c0-.29.12-.52.37-.7.25-.17.66-.26,1.23-.26h2.03V1.92h-1.51c-.57,0-.98-.09-1.23-.26-.25-.17-.37-.41-.37-.7s.12-.52.37-.7c.25-.17.66-.26,1.23-.26h5.88l9.08,16.53L134.17,0h5.88c.59,0,1.01.09,1.26.26.25.18.37.41.37.7s-.12.52-.37.7c-.25.18-.67.26-1.26.26h-1.48v22.87h2c.59,0,1.01.09,1.26.26.25.18.37.41.37.7s-.12.5-.37.69-.67.27-1.26.27h-8.82c-.57,0-.98-.09-1.24-.27s-.39-.41-.39-.69c0-.29.12-.52.37-.7.25-.17.67-.26,1.26-.26h4.42V1.92h-.51l-9.05,16.78Z"/>
      </g>
      <g>
        <path class="cls-1" d="M3.34,37.45v-1.87h5.4v1.87H3.34ZM7.88,45.91l-3.38-9.18h2.51l2.45,7.54-.74,1.64h-.84ZM8.21,45.91l-.5-1.05,3.58-9.09h.93l.37,1.95-3.47,8.19h-.91ZM14.83,45.91l-3.82-8.05.81-2.08h.87l3.67,8.5-.68,1.64h-.86ZM15.16,45.91l-.49-1.05,2.43-8.13h2.29l-3.3,9.18h-.93ZM15.41,37.45v-1.87h5.19v1.87h-5.19Z"/>
        <path class="cls-1" d="M52.06,37.45v-1.87h5.71v1.87h-5.71ZM52.06,45.7v-1.87h5.71v1.87h-5.71ZM53.72,44.59v-7.94h2.39v7.94h-2.39Z"/>
        <path class="cls-1" d="M89.72,37.45v-1.87h5.55v1.87h-5.55ZM89.72,45.7v-1.87h5.55v1.87h-5.55ZM91.38,44.67v-8.01h2.39v8.01h-2.39ZM92.38,43.97v-2.11l5.93-4.76h2.64l-8.57,6.87ZM98.31,44.3l-3.61-3.97,1.84-1.12,4.79,5.09h-3.02ZM96.69,37.45v-1.87h5.09v1.87h-5.09ZM96.76,45.7v-1.87h5.12v1.87h-5.12Z"/>
        <path class="cls-1" d="M133.45,37.45v-1.87h5.71v1.87h-5.71ZM133.45,45.7v-1.87h5.71v1.87h-5.71ZM135.1,44.59v-7.94h2.39v7.94h-2.39Z"/>
      </g>
    </g>
  </g>
</svg>