<?xml version="1.0" encoding="UTF-8"?>
<svg id="_图层_2" data-name="图层 2" xmlns="http://www.w3.org/2000/svg" viewBox="0 0 683.83 464.62">
  <defs>
    <style>
      .cls-1 {
        fill: none;
      }

      .cls-2 {
        fill: #fff;
      }

      .cls-2, .cls-3, .cls-4 {
        fill-rule: evenodd;
      }

      .cls-5 {
        font-family: BioRhyme-ExtraBold, BioRhyme;
        font-size: 48px;
        font-variation-settings: 'wght' 800, 'wdth' 100;
        font-weight: 700;
        letter-spacing: .25em;
      }

      .cls-5, .cls-6 {
        fill: #00045a;
      }

      .cls-6 {
        font-family: CourierNewPSMT, 'Courier New';
        font-size: 141px;
        letter-spacing: .03em;
        stroke: #00045a;
        stroke-miterlimit: 10;
        stroke-width: 9px;
      }

      .cls-3 {
        stroke: #00045a;
        stroke-linecap: round;
        stroke-linejoin: round;
        stroke-width: .24px;
      }

      .cls-3, .cls-4 {
        fill: #00045a;
      }
    </style>
  </defs>
  <g id="_图层_1-2" data-name="图层 1">
    <g>
      <g id="_图层8" data-name="图层8">
        <path class="cls-2" d="M3.77,236.7l-.72-16.25,17.91-9.6L114.87,57.4l.08-41.7-2.79-.58,22.15-12.67,25.52,13.66-4.57,2.56.1,29.41c-6.78,4.57,113.1,43.23,190.83,38.95l-.07-4.09-6.39-3.52,14.36-10.14,15.37,9.19-4.38,3.12.13,5.24c56.27-.82,111.96-7.27,167.07-26.58l.02-28.56-6.4-5.04,32.17-12.67,24.51,16.52-6.31,3.27-.59,39.34,78.78,139.98,27.89,13.39-.16,10.34-678.4-.11Z"/>
      </g>
      <g>
        <g id="_图层6" data-name="图层6">
          <path class="cls-4" d="M338.73,92.39c-3.77-.01-4.5.08-8.16,0-.05-1.29-.09-2.59-.14-3.84,3.8.09,7.65.14,11.56.15,1.89,0,.58,0,2.44,0l-5.71,3.69ZM366.51,88.43c12.37-.31,24.03-.87,34.99-1.63.06,1.4.11,2.68.18,3.95-8.65.56-17.75,1.01-27.31,1.32l-7.86-3.63ZM178.36,66c-12.26-4.68-18.18-7.61-18.18-7.61l-4.99-6.19s7.92,4.26,23.17,9.87c.06,1.28-.08,2.25,0,3.94ZM182.71,63.63c7.47,2.63,16.41,5.47,26.77,8.28.02,1.29.03,2.78.05,4.52-10.57-2.84-19.65-6.59-26.82-9.19v-3.6ZM213.77,73.04c10.36,2.68,22.03,5.29,34.97,7.58.03,1.36.06,2.8.09,4.32-13.13-2.23-24.8-4.78-35.01-7.39l-.05-4.51ZM253.03,81.37c10.43,1.75,21.65,3.29,33.63,4.5l-.03,4.03c-12.03-1.14-23.2-2.59-33.51-4.25-.03-1.51-.06-2.93-.09-4.28ZM290.93,86.28c11.12,1.03,22.87,1.78,35.23,2.15.04,1.26.09,2.55.13,3.85-12.5-.34-24.3-1.04-35.39-2l.03-4ZM405.76,86.49c16.81-1.26,31.91-2.97,45.32-4.91.04,1.61.07,3,.11,4.25-13.36,1.83-28.43,3.44-45.26,4.63-.06-1.28-.11-2.56-.18-3.97ZM455.35,80.95c14.82-2.25,27.46-4.76,37.95-7.19,0,1.53,0,3.1,0,4.64-10.43,2.32-23.02,4.7-37.83,6.84-.03-1.26-.07-2.66-.11-4.28ZM497.55,72.75c23.03-5.6,34.39-10.51,34.39-10.51v5s-11.21,4.78-34.39,10.19c0-1.56,0-3.14,0-4.67ZM163.53,62.24l71.88,68.68,5-.98,6.11,5.29,22.3-8.49,5.35,2.43.27,12.56,15.76,4.95,18.52-9.84s-18.52-8.74-18.52-8.47c.01.28,0-7.6,0-7.6l-4.24-2,49.56-23.62c-68.4-.71-118.92-10.61-171.98-32.92ZM575.81,35.38l-18.73-12.56-24.89,9.16v-.1c-1.77-2.39-4.57-4.06-7.95-5.32l33.92-14.63,27.49,19c-4,.77-7.47,2.06-9.83,4.45ZM155.19,20.38l-20.48-11.77-19.59,10.17c-1.82-1.76-4.08-2.87-6.66-3.52L134.71,0l28.82,16.31c-1.68-.04-8.23,2.78-8.34,4.07ZM435.89,125.94l-6.33,3.39v4.36l-20.29,4.17,11.64,7.38,13.15-2.59-.26-8.96,2.1-2,28.4,8.73,68.87-68.98c-50.68,13.05-101.64,21.51-154.05,23.27l56.79,31.22ZM337.85,79.57c.32-.3,8.24,3.06,7.56,4.03l9.62-5.97,9.98,4.8c1.25-1.83,3.16-3.18,5.95-3.88l-16.62-10.4s-16.64,11.56-16.49,11.42ZM356.18,96.05c-19.28,8.86-48.02,20.21-61.99,24.36-.35.1-.36.1-.69-.07,0,0-.43-.53-.43-.54.02-.23-.04-.48.07-.68.25-.46.34-.38.83-.53,11.53-3.49,35.22-12.87,59.35-27.77,2.12-1.31,2.59-1.54,2.59-1.54,0,0,.94.67,1.74,1.14,24.53,14.51,48.96,24.56,73.17,34.65,1.23.51,1.06,2.33-.69,1.67-.48-.19-.45-.28-21.44-8.7-15.31-6.14-34.78-13.87-52.51-21.99ZM347.46,84.68l.1,4.14,6.17-3.6v-4.52l-6.28,3.97ZM363.23,83.64v4.34l-5.92-2.83-.17-4.45,6.08,2.93Z"/>
          <path class="cls-1" d="M532.19,31.98l.16,27.14"/>
          <path class="cls-4" d="M532.36,60.74c-.86.03-.87-1-.91-1.61l-.9-27.15c-.06-2.8,3.23-2.54,3.25-.02.07,9.05-.38,18.1-.58,27.15-.02.95-.08,1.61-.87,1.63Z"/>
        </g>
        <g id="_图层1" data-name="图层1">
          <path class="cls-4" d="M576.82,73.34c-.13,1.52-2.05,1.19-1.99,0l-.96-38.88c-.09-3.97,3.92-3.87,3.92,0,0,12.96.14,25.96-.97,38.87Z"/>
          <path class="cls-4" d="M156.45,48.97c-.09,2.11-2.52,1.92-2.47,0l-.48-30.04c.08-2.74,3.36-2.42,3.43,0,.31,10.01-.07,20.03-.48,30.04Z"/>
          <path class="cls-4" d="M116.67,56.88c-.02,3.41-3.11,2.91-3.21,0-.43-13.29-.74-26.59-1.1-39.88-.03-1.09.68-1.79.79-1.91.25-.24.54-.45.86-.58.15-.06,1.05-.44,2.1,0,1.01.42,1.37,1.29,1.44,1.44.54,1.28-.68,1.33-.88,40.93Z"/>
          <path class="cls-4" d="M681.94,234.98c2.38.09,2.65,3.38,0,3.47l-678.57-.9c-1.31-.04-1.28-1.62,0-1.66l678.57-.9Z"/>
          <path class="cls-1" d="M115.07,56.94L21.09,210.95"/>
          <path class="cls-4" d="M20.21,212.39c-.58-.35-.6-.38-.76-1.04-.2-.82-.08-.84.38-1.55,2.95-4.6,22.8-35.61,36.35-57.77,20.86-34.12,57.67-95.8,57.7-95.82.29-.21.52-.54.86-.63.35-.08.71.11,1.06.16,1.03.16.52,1.77.47,1.92-.02.04-48.4,77.65-64.81,105.05-16.26,27.17-28.89,49.1-28.93,49.12-.35.25-.62.65-1.04.75-.66.15-.7.15-1.28-.2Z"/>
          <path class="cls-1" d="M3.37,219.74l17.71-8.79"/>
          <path class="cls-4" d="M23.46,209.78c-.88.57-.5,1.99-1.37,2.57l-17.54,9.76c-4.15,1.86-6.54-2.57-2.35-4.73,5.87-3.03,12.09-5.31,18.13-7.96,1.5-.66,1.51.18,3.14.36Z"/>
          <path class="cls-4" d="M682.6,228.24c-.27.26-.63.4-.99.54-.36.13-.75.19-1.13.17-.39-.02-.77-.15-1.13-.28-.31-.11-.6-.27-.89-.42l-25-12.81c-.09-.05-.56-.29-.89-.9-6.84-12.8-23.8-44.99-40.21-74.39-12.58-22.56-37.4-66.28-37.4-66.28,0,0,1.28-2.08,1.85-1.08.08.13,28.9,52.82,46.88,84.16,11.5,20.04,32.15,55.01,32.15,55.01,1.25,1.07,1.48.67,25.22,10.95,1.28.55,1.66.97,1.77,1.1.12.13.81.9.75,2.1,0,.1-.03.63-.28,1.15-.36.74-.54.83-.7.99Z"/>
          <path class="cls-3" d="M566.81,87.7l2.28,1.22-.06,18.82-2.08-1.15-.14-18.9Z"/>
          <path class="cls-3" d="M122.55,75.71v22.91l3.23-.89v-23.6l-3.23,1.58Z"/>
          <path class="cls-4" d="M562.85,222.06l5.02,2.32.18,11.85,10.2.04.03-5.38,8.82-4.18,4.28,1.05s.09-2.49.09-3.73c-.09-34.57-28.94-34.62-28.73-8.84"/>
        </g>
        <g id="_图层2" data-name="图层2">
          <path class="cls-3" d="M342.49,153.07l-13.28,4.84v-20.9c-.02-12.2,13.28-18.67,13.28-5.44v21.5ZM373.35,130.37c0-10.56,11.58-8.47,11.58,5.21v20.24l-11.58-4.25v-21.19ZM323,160.17l-7.69,2.8v-20.27c0-12.23,7.56-15.38,7.69-3.15v20.61ZM391.14,138.37c0-11.18,9.63-7.76,9.63,4.33v18.93l-9.63-3.54v-19.72Z"/>
        </g>
        <g id="_图层4" data-name="图层4">
          <path class="cls-4" d="M418,159.78c-.75-.02,18.97-4.04,18.97-4.04l.87,23.2-9.37,4.53-10.07-5.01"/>
          <path class="cls-4" d="M418.4,192.84l9.77,5.37,9.75-4.48,1.22,39.21-4.41.67-6.08-2.5-.21-16.1,2.39-2.25-12.06-7.54"/>
          <path class="cls-4" d="M273.97,159.67l23.87,6.48-.12,11.51-23.34,7.53-.42-25.53Z"/>
          <path class="cls-4" d="M275.4,203.36l23.42-6.84.4,9.29-11.68,7.43,3.91,2.62.24,14.74-16.13,2.57-.16-29.81Z"/>
        </g>
        <g id="_图层3" data-name="图层3">
          <path class="cls-4" d="M341.66,135.01c-1,.49-2.21.07-2.7-.93-.49-1-.07-2.21.93-2.7l18.12-8.81c.57-.28,1.24-.27,1.81.02l15.78,8.1c.99.51,1.39,1.73.88,2.72-.51.99-1.73,1.38-2.72.87l-14.89-7.64-17.21,8.37Z"/>
          <path class="cls-4" d="M420.93,149.75c1.69,1.2.64,3.01-1.23,1.92-4.58-2.69-13.73-8.07-13.73-8.07,0,0-7.38,2.23-7.87,2.36-2.5.66-3.28-2.73.23-3.72,2.45-.69,4.86-1.5,7.3-2.24.11-.04.8-.24,1.49.24,1.11.76,13.75,9.48,13.81,9.52Z"/>
          <path class="cls-4" d="M317.4,143.12c2.39,1.35,1.64,5.31-1.85,3.59-2.02-1-5.9-3.3-5.9-3.3l-13.81,6.81c-1.54,1.03-3.44-.78-1.2-2.25,1.13-.74,13.39-8.05,14.7-8.32.59-.12,1.04.1,1.12.14,2.31,1.1,4.69,2.07,6.93,3.33Z"/>
          <path class="cls-4" d="M343.62,196.61c-.33.24-.74.38-1.17.39l-.82-.16-.71-.51-.38-.63-.14-.7.1-.64.25-.51.38-.42.82-.48c2.76-1.35,18.55-8.08,18.55-8.08.51-.22,1.09-.22,1.61.01l16.7,7.37c1.02.45,1.48,1.64,1.03,2.66-.45,1.02-1.64,1.48-2.66,1.03l-15.9-7.02c-3.23,1.38-15.21,6.51-17.57,7.65-.03.01-.06.03-.09.05ZM343.75,193.45c-.26-.23-.67-.5-1.33-.49.51,0,.97.18,1.33.49Z"/>
          <g>
            <path class="cls-4" d="M402.77,210.9c-.7.51-1.46.34-1.6.31-1.34-.29-2.25-2.03-1.01-3.4.32-.35.59-.47,4.84-2.14.81-.32,9.75-3.85,10.11-3.93.67-.15,1.17.15,1.26.2,4.2,2.53,8.32,5.17,12.58,7.6,2.46,1.41,1,3.8-1.44,2.49-4.05-2.18-8-4.54-12.07-6.7-4.79,2.08-10.52,4.56-12.67,5.57Z"/>
            <path class="cls-2" d="M403.37,211.93h0c-1.08.72-2.23.48-2.45.44-2.12-.46-3.59-3.19-1.64-5.35.2-.23.38-.4.97-.7.56-.28,1.7-.74,4.31-1.76.82-.33,9.91-3.89,10.28-3.98,1.15-.26,1.99.25,2.14.34,4.19,2.52,8.31,5.15,12.55,7.59,2.04,1.17,2.15,2.88,1.55,3.9-.59.99-2.14,1.73-4.14.66-3.88-2.09-7.67-4.34-11.56-6.43-4.6,2-9.9,4.29-12.02,5.29ZM402.77,210.9c2.15-1.01,7.87-3.49,12.67-5.57,4.06,2.16,8.02,4.53,12.07,6.7,2.44,1.31,3.89-1.08,1.44-2.49-4.25-2.43-8.38-5.07-12.58-7.6-.09-.05-.59-.35-1.26-.2-.36.08-9.3,3.61-10.11,3.93-4.25,1.68-4.52,1.8-4.84,2.14-1.23,1.37-.32,3.11,1.01,3.4.14.03.91.19,1.6-.31Z"/>
          </g>
          <path class="cls-4" d="M322.5,207.8c2.95,1.07,2.34,5.09-1.47,3.76-5.38-1.87-15.72-6.63-15.72-6.63l-15.3,7.41c-1.63.97-2.85-.95-1.04-2.02,1.24-.74,14-7.98,15.78-8.6.53-.19.97-.03,1.05,0,5.57,2.02,11.13,4.07,16.7,6.09Z"/>
          <path class="cls-2" d="M322.9,206.68c2.69.97,3.18,3.66,2.1,5.14-.7.95-2.14,1.64-4.36.86-4.69-1.63-13.16-5.45-15.32-6.44l-14.74,7.14c-1.55.9-2.87.25-3.41-.7-.52-.91-.48-2.39,1.19-3.39,1.25-.75,14.19-8.07,16-8.7.94-.33,1.72-.05,1.85,0,5.57,2.02,11.13,4.06,16.7,6.08ZM322.5,207.8c-5.57-2.02-11.13-4.06-16.7-6.09-.08-.03-.52-.19-1.05,0-1.78.63-14.54,7.87-15.78,8.6-1.81,1.08-.59,3,1.04,2.02l15.3-7.41s10.35,4.76,15.72,6.63c3.8,1.32,4.41-2.7,1.47-3.76Z"/>
        </g>
        <g id="_图层5" data-name="图层5">
          <path class="cls-4" d="M245.79,166.74l3.11,1.66,11.43-3.69-2.67-2.04-11.86,4.08Z"/>
          <path class="cls-4" d="M221.27,174.34l3.11,1.66,11.43-3.69-2.67-2.04-11.86,4.08Z"/>
          <path class="cls-4" d="M199.62,181.73l3.11,1.66,11.43-3.69-2.67-2.04-11.86,4.08Z"/>
          <path class="cls-4" d="M177.97,189.12l3.11,1.66,11.43-3.69-2.67-2.04-11.86,4.08Z"/>
          <path class="cls-4" d="M156.31,196.52l3.11,1.66,11.43-3.69-2.67-2.04-11.86,4.08Z"/>
          <path class="cls-4" d="M73.99,222.42l3.11,1.66,11.43-3.69-2.67-2.04-11.86,4.08Z"/>
          <path class="cls-4" d="M54.67,229.07l3.11,1.66,11.43-3.69-2.67-2.04-11.86,4.08Z"/>
          <path class="cls-4" d="M35.35,235.71l3.11,1.66,11.43-3.69-2.67-2.04-11.86,4.08Z"/>
          <path class="cls-4" d="M452.23,165.71l2.34-2.19,11.16,4.03-2.36,1.98"/>
          <path class="cls-4" d="M474.68,174.04l2.34-2.19,11.16,4.03-2.36,1.98"/>
          <path class="cls-4" d="M497.13,182.38l2.34-2.19,11.16,4.03-2.36,1.98"/>
          <path class="cls-4" d="M519.59,190.71l2.34-2.19,11.16,4.03-2.36,1.98"/>
          <path class="cls-4" d="M540.47,198.5l2.34-2.19,11.16,4.03-2.36,1.98"/>
          <path class="cls-4" d="M607.53,225.36l2.34-2.19,11.16,4.03-2.36,1.98"/>
          <path class="cls-4" d="M627.09,233.08l2.34-2.19,11.16,4.03-2.36,1.98"/>
          <path class="cls-4" d="M146.69,237.02l-.06-2.46,9.46-2.5.08,4.97h-9.48ZM167.55,237.02l-.18-8.09,9.46-2.51.17,10.6h-9.45ZM190.75,237.02l-.35-15.37,9.45-2.51.3,17.88h-9.4ZM214.31,237.02l-.54-23.28,9.46-2.5.42,25.79h-9.34ZM488.78,237.02l-.11-23.59,7.79,2.71.25,20.88h-7.93ZM511.2,237.02l-.07-16.42,7.79,2.71.17,13.71h-7.88ZM531.16,237.02l-.05-9.25,7.79,2.71.07,6.54h-7.82ZM550.12,237.02l-.02-4.43,7.79,2.71.02,1.72h-7.79ZM237.66,207.04l9.46-2.51.52,31.43-9.32-.42-.66-28.5ZM467.11,205.38l7.79,2.71.34,28.07-7.99.25-.14-31.03Z"/>
          <path class="cls-3" d="M324.8,216.86l-3.45.59v-20.36l-6.04-10.76,9.49-3.13v33.66ZM331.01,181.16l12.68-4.17v36.62l-12.68,2.19v-34.64ZM377.38,177.23l7.81,2.5.02,2.29.05,34.82-7.87-2.43v-37.17ZM391.41,181.73l9.36,2.99-5.3,10.65.02,24.38-4.18-1.43.11-36.33v-.27Z"/>
        </g>
        <g id="_图层7" data-name="图层7">
          <path class="cls-4" d="M106.09,222.39l8.19,6.56.25,7.38,20.47.46-.18-17.61,2.87-1.09s.05-1.98.02-4.79c-.23-26.87-31.79-21.89-31.61,7.14"/>
        </g>
      </g>
    </g>
    <text class="cls-6" transform="translate(23.46 364.28) scale(1.79 1)"><tspan x="0" y="0">XMUM</tspan></text>
    <text class="cls-5" transform="translate(256.86 424.68)"><tspan x="0" y="0">WIKI</tspan></text>
  </g>
</svg>