<?xml version="1.0" encoding="UTF-8"?>
<svg id="_图层_2" data-name="图层 2" xmlns="http://www.w3.org/2000/svg" viewBox="0 0 115.04 71.32">
  <defs>
    <style>
      .cls-1 {
        fill: #fff;
      }

      .cls-1, .cls-2 {
        fill-rule: evenodd;
      }

      .cls-3, .cls-2 {
        fill: #00045a;
      }
    </style>
  </defs>
  <g id="_说明1" data-name="说明1">
    <g id="fav">
      <path class="cls-1" d="M1.66,61.18L16.88,1.3c28.21,34.9,56.4,33.52,84.58.22l11.64,58.75c-36.88,15.79-76.15,13.35-111.44.91Z"/>
      <path class="cls-2" d="M46.48,60.1c-.38-.53-.25-1.26.27-1.64.53-.38,1.26-.25,1.64.27.75,1.05,1.29,1.55,1.88,1.53.4,0,.75-.26,1.12-.54.55-.43,1.09-.98,1.64-1.48.97-.88,2.01-1.57,3.1-1.64.83-.06,1.72.18,2.68,1,1.05.89,1.88,1.54,2.57,1.95.49.3.88.47,1.26.47.34,0,.64-.18,1-.43.55-.39,1.15-.96,1.91-1.67.47-.44,1.22-.42,1.66.05.44.47.42,1.22-.05,1.66-1.05.99-1.86,1.72-2.58,2.15-.64.39-1.25.58-1.89.59-.61.01-1.26-.14-2.01-.53-.88-.45-1.94-1.24-3.37-2.45-.35-.3-.66-.45-.96-.45-.32,0-.61.16-.9.36-.61.41-1.18,1.01-1.77,1.55-1.25,1.15-2.58,1.98-4.03,1.69-.94-.19-2.01-.85-3.16-2.45Z"/>
      <path class="cls-2" d="M16.8,3.02c-.73,3.21-1.48,6.41-2.21,9.62-.64,2.85-1.27,5.7-1.89,8.55q-4.11,18.95-8.01,37.95c-.06.29-.05.29-.07.34-.12.28-.19.59-.37.85-.17.24-.4.45-.65.61-.26.16-.55.27-.85.31-.15.02-1,.15-1.82-.44-.24-.18-.46-.41-.61-.66-.16-.26-.26-.54-.31-.84-.04-.3.02-.61.06-.92.01-.12.06-.23.09-.34q5.1-18.71,10.1-37.44c.35-1.33,1.75-6.62,4.25-16.6.27-1.09.53-2.18.81-3.26.02-.07.13-.52.64-.69.07-.02.51-.16.92.18.21.18.16.22,2.22,2.56,8.99,10.15,16.26,14.81,20.01,16.92,19.41,10.97,35.7,4.25,47.86-5.38,6.2-4.91,11.3-10.84,11.55-11.12,1.38-1.56,1.96-2.3,2.08-2.4.38-.32.78-.18.85-.16.47.16.57.59.58.65.24,1.13.46,2.26.71,3.38.57,2.67,1.15,5.34,1.74,8,.46,2.07,2.32,10.48,5.97,25.84q2.24,9.43,4.54,18.85c.11.43.01.9,0,.98-.06.31-.19.61-.37.87-.18.26-.4.5-.67.68,0,0-.9.38-.91.38-.33,0-.66.06-.98,0-.31-.06-.61-.19-.88-.36-.26-.17-.5-.4-.68-.66-.36-.53-.32-.55-.43-1.19q-2.97-18.13-6.06-36.24c-.77-4.43-1.43-8.04-1.56-8.74-.93-5.07-1.07-5.64-1.83-9.69-3.45,3.89-8.24,8.87-14.17,13.31-18.13,13.55-37.02,14.06-56.53-1.19-2.06-1.61-6.85-5.45-13.13-12.51Z"/>
      <path class="cls-2" d="M97.28,18.94c-.37-.85,2.73-2.2,3.1-1.35.86,1.98,1.08,6.08,1.1,6.62.04.93-3.33,1.08-3.37.15-.02-.44-.13-3.81-.83-5.43Z"/>
      <path class="cls-2" d="M16.33,16.34c.37-.85,3.47.49,3.1,1.35-.7,1.62-.81,4.98-.83,5.43-.04.93-3.41.78-3.37-.15.02-.54.24-4.65,1.1-6.62Z"/>
      <path class="cls-2" d="M21.56,6.97c8.7,15.88,25.25,46.85,35.38,25.08,7.56,14.8,17.29,8.51,35.46-21.88-23.86,23.58-47.46,21.25-70.84-3.2Z"/>
      <circle class="cls-3" cx="29" cy="49.34" r="4.35"/>
      <circle class="cls-3" cx="87.08" cy="49.34" r="4.35"/>
    </g>
  </g>
</svg>